<?xml version="1.0" encoding="utf-8"?>
<!-- Generator: Adobe Illustrator 19.0.0, SVG Export Plug-In . SVG Version: 6.00 Build 0)  -->
<svg version="1.1" id="Layer_1" xmlns="http://www.w3.org/2000/svg" xmlns:xlink="http://www.w3.org/1999/xlink" x="0px" y="0px"
	 viewBox="0 0 612 792" style="enable-background:new 0 0 612 792;" xml:space="preserve">
<style type="text/css">
	.st0{fill:#EAE9E9;}
	.st1{fill:#DAC671;}
	.st2{fill:#5F3E4D;}
	.st3{fill:#DAA1AD;}
	.st4{fill:#442E3C;}
	.st5{fill:#D692A5;}
	.st6{fill:#553548;}
	.st7{fill:#DCB3B4;}
	.st8{fill:#5B3B3E;}
	.st9{fill:#9B7A6F;}
	.st10{fill:#EBD4A3;}
	.st11{fill:#E2C5A7;}
	.st12{fill:#6B423D;}
	.st13{fill:#D79F73;}
	.st14{fill:#EBCF9A;}
	.st15{fill:#DC8651;}
	.st16{fill:#AB9AA6;}
	.st17{fill:#E5A669;}
	.st18{fill:#E6B783;}
	.st19{fill:#E69356;}
</style>
<g id="XMLID_4_">
	<path id="XMLID_984_" class="st0" d="M394,637c-87.3,0-174.7,0-262,0c-1-2.8-2-5.7-2.9-8.2c-2.7-1.2-5.5-2.4-8.3-3.6
		c0,1.8,0,3.8,0,5.9c-1.3,0.9-2.6,1.8-4.2,2.9c1.9,1.3,3.1,2.2,4.3,3.1c-9,0-18,0-27,0c-0.5-1.9-0.8-4-1.7-5.7
		c-0.2-0.4-3.3-0.2-3.5,0.4c-0.7,1.6-0.6,3.5-0.8,5.4c-44.7,0-89.3,0-134,0c0-160,0-320,0-480c169.3,0,338.7,0,508,0
		c-1,3-2.1,6-3.1,8.9c0.1,2.9,0.2,5.9,0.3,8.8l0.2,0.2c0.8,5.4,0.8,11.1,6.6,14.1c0.7,1.3,1.5,2.6,2.2,3.9c1.3,2,2.5,4,3.5,5.5
		c2.4-0.4,4-0.7,5.7-1c-0.1,1.7-0.6,3.4-0.3,5c0.3,2,1.1,3.9,2.1,7.1c-0.9,1.3-2.7,3.9-4.5,6.6c0.2,0.1,0.7,0.6,1,0.5
		c9.8-2.7,10.5-2.2,10.5,7.9c0,1.2-0.1,2.3-0.1,3.5c-3.6-0.3-7.2-0.6-10.9-0.9c-2.9-0.9-5.8-1.8-8.7-2.7c-0.3,0.5-0.6,1.1-0.9,1.6
		c0.8,1.1,1.5,2.3,2.4,3.3c3.1,3.2,6.1,6.6,9.5,9.5c2.3,2,2.6,3.7,1.3,6.4c-2.2,4.5-4,9.2-6.4,14.9c3.9,0,6.9,0,9.8,0
		c0.6,4.6-4.5,9.6,0.9,13.8c-2,6.4-4.1,12.8-6.1,19.2c-2,5.8-3.9,11.5-5.9,17.3c-1.7,4.3-3.4,8.6-5.2,12.9c-0.3,0.4-0.8,0.7-0.9,1.1
		c-6.9,22.1-13.7,44.3-20.6,66.5c-1.5,5-3,10.1-4.5,15.1c-1.3,4.3-2.9,8.5-3.8,12.9c-0.3,1.3,1,3.7,2.2,4.4c4.3,2.5,5.9,1.7,7.4-3.3
		c9.4-32.1,18.8-64.3,28.1-96.5c1.4-4.7,2.2-9.6,3.2-14.5c1-3.9,1.9-7.9,2.9-11.8c0.7-1,1.7-2,2-3.1c1.9-6.9,3.7-13.9,5.5-20.8
		c1.4,0,2.8,0,4.3,0c0-1.7,0-3,0-4.3c2.1-1.7,4.2-3.4,5.9-4.8c2.7,1.5,5,2.7,7.2,3.9c1,1.4,1.9,2.7,3.7,5.2c0.9-7.9,1.7-14,2.4-20.2
		c2.7-1.3,5.3-2.9,8.1-3.7c4.4-1.4,8.9-2.3,13.3-3.4c0-0.5,0-0.9,0-1.4c-1.5-0.8-3-1.7-4.5-2.5c-4.4-1.8-9-3.3-13.1-5.7
		c-2.1-1.2-4.1-3.7-4.8-6c-1.8-6.3-2.9-12.8-4.3-19.3c0.6-4.2-0.3-7.7-4.3-10c-1.4-0.8-2.5-2.2-4-2.9c-5.1-2.5-9.3-6-13.1-10.2
		c-0.2-0.2-1,0-1.5,0c0-0.3,0-0.7,0-1c-0.5-0.4-1.1-0.9-1.6-1.3c0-0.3,0-0.6-0.1-0.9c-1.5-4.3-4.7-6.2-10-7
		c-0.4-5.8-0.8-11.8-1.2-17.7c0-1,0-2,0-3.1c68,0,136,0,204,0c0,160,0,320,0,480c-88.7,0-177.3,0-266,0c0.1-0.6,0-1.4,0.3-1.8
		c6-5.8,6.2-7.4,1.4-14.1c8.9-2.4,17.8-4.7,26.6-7.3c11.6-3.3,23.2-6.6,33-14.1c5.1-3.9,6.4-7.9,4.7-13.8c-2.1-2.3-3.7-5.7-6.3-6.7
		c-10-4.1-20.1-8.4-30.6-10.8c-12.1-2.8-24.7-3.7-37.1-5.5c-0.8-12.9-5.1-24.3-15.2-33c-1.5-1.3-2.7-3-3.5-4.8
		c-6.5-14.3-12.9-28.7-19.3-43.1c1.7-0.7,3.4-1.3,5-2.1c9.6-4.8,19.3-9.7,28.9-14.5c5.3-4.6,11.5-8.7,15.8-14.1
		c3.8-4.9,6-11.2,8.1-17.2c0.9-2.6,0.4-6.1-3.8-6.6c-0.3-1.1-0.2-2.7-0.8-3.1c-3.2-1.9-6.6-3.4-10.1-5.1
		c9.4-8.3,18.2-17.4,21.4-30.5c0.3-4.9,0.6-9.9,0.9-16c-6.4,3.9-12.1,3.2-17.8,1.1c0,0.1,0.1,0.2,0.1,0.3c-0.1,0.1-0.2,0.2-0.3,0.4
		c-1-0.9-2-1.7-3.1-2.6c-1.2-2.3-2.4-4.5-3.7-7c13.9-15.6,21.2-34.5,25.4-54.9c0.3-1.7,0.7-3.5,1-5.2c0.6-1.9,1.1-3.9,1.7-5.8
		c2.5-15.2,2.4-30.4-1.5-45.4c-2.6-10.2-7.6-13.2-17.6-10.1c-9.7,3-19.1,6.9-28.6,10.3c-0.7,0-1.3,0-2,0c-1.9,0.7-3.9,1.4-5.8,2.1
		c-1.3,0.4-2.6,0.8-4,1.2c-0.3-0.2-0.7-0.5-1-0.7c16.8-17.5,16.2-41,0.5-58.8c-16.6-18.8-47.4-23.2-68.5-9.6
		c-13.5,8.7-21.4,21.1-20,37.6c0.6,6.9,3.5,13.6,5.3,20.4c-15.9-0.8-31.2,3.8-45.9,12.6c-0.2-1.6-0.4-2.5-0.4-3.4
		c-0.1-16.6-8-28.7-22.3-36.3c-23-12.1-52.1-4.4-68.5,17.5c-13.1,17.5-14.4,39.6-3.6,56.1c4.8,7.4,11.4,12.7,19.3,16.5
		c0.3,1.2,0.6,2.4,0.8,3.7c1.8,11.1,6.4,20.8,14,29c-2.7,1.6-5.3,3.4-8.1,4.8c-2.5,1.3-5.2,2.7-3.5,5.9c1.6,3,2.8,7.1,8.1,5.2
		c1.8-0.6,4.7-0.7,6,0.3c4,3.2,8.6,6.5,10.8,10.8c1.3,2.5-1.4,7.1-2.2,10.8c-0.2,1-0.1,2-0.3,3c-2.8,14.2-7,19.2-18.8,21
		c2.4,6.2,4.2,12.4,7.1,18c4.2,8,11.5,13.2,18.9,18c5.6,2.9,11.2,5.8,16.9,8.6c3.3,1.2,6.7,2.4,10,3.5c11.4,2.6,22.9,5.1,33.8,7.6
		c-4.1,16.8-8.5,34.4-12.8,52c-0.7-0.8-1.6-1.4-1.9-2.3c-2.7-8-5.2-16.1-7.8-24.2c-0.3-0.8-0.6-1.5-1-2.3
		c-9.5-17.1-24.2-28-42.2-34.6c-12-4.4-24.1-8.6-36.1-12.8c-16.8-10.8-19.5-30.2-11.1-46.2c0.2-1.2,0.5-2.3,0.7-3.5
		c-1.5-0.5-3.2-1.8-4.4-1.4c-4.5,1.3-9.6,2.2-13.2,4.9c-5.7,4.3-10.4,10-15.5,15.1c-14.3,18.8-22.9,39.9-25,63.4
		c-2.6,28,3.8,53.9,20.4,76.7c11.1,15.3,25.6,26.8,42.3,35.7c-0.7,0.4-1.3,0.9-2.1,1.2c-9.5,3-18.8,6.2-26.7,12.7
		c-4.2,3.5-5.1,8.5-1.3,12.5c2.6,2.7,5.7,5.7,9.1,6.7c12.1,3.8,24.5,6.8,36.8,10.1c16.6,2,33.3,4.1,49.9,6.1l0,0
		c7.7,0.7,15.4,1.3,23,2c10.2,0.4,20.3,0.8,30.5,1c1.5,0,3.1-0.6,4.6-1c6.2,0.2,12.4,0.4,18.6,0.7c13.1-0.3,26.1-0.5,39.2-1
		c4.1-0.2,8.1-1.1,12.2-1.6c9.2-0.9,18.3-1.9,27.5-2.7c4-0.3,8.1-0.3,12.1-0.4C385.7,631.7,390.6,633.9,394,637z M511.2,600
		c-0.8-0.1-2-0.6-2.2-0.2c-2.4,2.8-4.6,5.7-6.1,7.7c3.6,4.1,7,8,10.8,12.5c0.2-3.3,0.3-6.2,0.4-9c0.7-1.2,1.3-2.4,2-3.7
		C514.5,604.8,512.8,602.4,511.2,600z M472.1,528.5c-0.7,3.1-1.7,5.3-1.7,7.5c-0.1,3.7-2.1,4.7-5.4,5.1c-1.4,0.2-2.6,1.4-4,2.2
		c1,1,1.7,2.4,2.9,3c4.8,2.5,8.6,5.5,8.4,11.7c0,1.5,1.4,3.1,2.2,4.8c2.9-2.2,12.7-6.4,14.9-6.5c0.1-0.4,0.4-1.1,0.2-1.4
		c-3.8-5.2-3.9-10.2-0.2-15.8c1.7-2.6-0.9-4.8-3.5-4c-5.1,1.7-8.1-0.3-10.7-4.3C474.8,530.2,473.8,529.8,472.1,528.5z M432.1,211.3
		c-3.5-2.1-6.7-4-10.5-6.2c-1.2,4-3.1,7.9-8.3,7.7c2.2,4.4,4,8.2,5.6,11.4c3.2,0.5,6.5,0.8,9.7,1.5c3.4,0.7,3.5-1.3,3.5-3.7
		C432,218.3,432.1,214.6,432.1,211.3z M412.4,505.7c0,1.2,0.7,3.5-0.2,4.9c-0.9,1.5-3.3,2.2-4.2,2.8c2.2,3.1,4,5.7,5.4,7.7
		c3.4-0.3,6.6-0.5,9.5-0.7c1.1-2.6,2.4-5.3,3.3-7.4c-1.6-3.6-3.1-7-4.2-9.6C419.1,504,416,504.8,412.4,505.7z M455.7,272.7
		c-1.6-0.6-3.4-0.9-4.7-1.9c-1.4-1-2.3-2.6-3-3.5c-3.1,2.5-5.8,4.7-8.4,6.7c1.6,2.6,3.2,5.4,4.7,7.8c2.4,0,5.2,0,8.2,0
		C453.5,279.4,454.5,276.3,455.7,272.7z M545.3,548.5c4.5,0,8.1-4.1,8-9c-0.1-4.6-3.4-7.7-8-7.7c-4.8,0-8.2,3.5-8.1,8.2
		C537.3,544.5,541,548.5,545.3,548.5z M533.4,191.4c-2-1.7-4.1-3.4-6.2-5.1c-1.8,2.5-3.3,4.6-4.8,6.6c2.3,2.4,4.4,4.6,6.5,6.9
		C530.5,196.9,531.8,194.4,533.4,191.4z M445.2,455.2c-0.8,0-1.6,0-2.3,0c-1.6,2.1-4.1,4.1-4.6,6.5c-0.6,3.3,1.8,5.7,5.3,5.9
		c3.7,0.1,6.4-2.3,6-5.8C449.3,459.4,446.8,457.4,445.2,455.2z M538.2,278.4c-2.7-4.2-5.2-6.6-9-4.7c-0.6,0.3,0.3,5.5,1,5.6
		C532.5,279.7,535.1,278.9,538.2,278.4z M480.6,157.6c-2.1,2.5-3.2,3.9-4.4,5.3c1.7,1.2,3.4,2.6,5.2,3.6c0.3,0.2,2.4-1.6,2.2-2
		C483.1,162.5,482,160.7,480.6,157.6z M95.6,582.5c-2.2-1.6-3.6-3.3-4.7-3.2c-1.3,0.1-2.5,1.9-3.7,3c1.2,1.1,2.3,2.8,3.7,3.2
		C91.8,585.7,93.3,584,95.6,582.5z M418.8,552.6c-0.4,0.8-0.8,1.6-1.2,2.5c1.7,1.2,3.4,2.5,5,3.7c0.7-1.5,1.5-3,2.2-4.5
		C422.8,553.7,420.8,553.1,418.8,552.6z M169.3,388.4c-2.1-1.4-3.3-2.7-4.8-2.9c-0.6-0.1-2.5,2.3-2.3,2.9c0.6,1.4,2,2.6,3.4,3.3
		C166,391.8,167.4,390,169.3,388.4z M164.3,381.3c-1.7-1.4-2.8-2.8-4-3.1c-0.9-0.2-3,1.7-2.9,2.2c0.4,1.5,1.7,2.8,2.6,4.1
		C161.2,383.7,162.4,382.7,164.3,381.3z M115.1,567.1c-1.9-1.6-2.9-3.2-4.1-3.4c-0.8-0.1-2.8,1.8-2.7,2.7c0.1,1.2,1.5,2.7,2.7,3.1
		C111.8,569.7,113.2,568.2,115.1,567.1z"/>
	<path id="XMLID_981_" class="st1" d="M468.1,192.9c-0.7-1.3-1.5-2.6-2.2-3.9c-0.7-2.3-1.3-4.5-2.2-7.2c2-1.6,2.3-3.7-1.3-5.5
		c-1-0.5-2.1-1-3.1-1.4c0,0-0.2-0.2-0.2-0.2c-0.1-2.9-0.2-5.9-0.3-8.8c1-3,2.1-6,3.1-8.9c2.7,0,5.3,0,8,0c0,1,0,2,0,3.1
		c-4.4,5.1-1.7,17.5,4.3,20.2c1.4,0.6,2.4,2.2,3.7,3.1c1,0.6,2.1,0.9,3.2,1.4c0.1,0.3,0.2,0.6,0.1,0.9c-0.1,0.4-0.2,0.9-0.3,1.3
		c-0.9,0.3-1.8,0.6-2.7,0.9c-0.9,0.3-2.3,0.2-2.8,0.8c-0.4,0.6-0.2,2,0.2,2.8c0.6,1,1.6,1.6,2.5,2.4c-0.1,0.3-0.3,0.6-0.4,1
		C474.6,194.2,471.4,193.6,468.1,192.9z M469.7,180.4c-0.7-0.4-1.1-0.8-1.6-0.9c-0.2,0-0.8,0.8-0.8,0.9c0.2,0.5,0.7,0.9,1.1,1.1
		C468.6,181.6,469.1,181,469.7,180.4z"/>
	<path id="XMLID_978_" class="st2" d="M409.7,621.2c4.8,6.6,4.6,8.3-1.4,14.1c-0.3,0.3-0.2,1.2-0.3,1.8c-4.7,0-9.3,0-14,0
		c-3.4-3.1-8.3-5.3-8.3-11c-0.4-4.4,2.6-6.7,5.7-8.9C398,616.2,404.2,617.1,409.7,621.2z M410,629.9c1.2-5.3-2.4-7.6-6.1-9.5
		c-4.4-2.2-10.1-1.4-13.1,1.6c-3.6,0.5-2.9,3.1-2.5,5.3c0.8,4.9,4.5,6.9,8.8,7.5C402.1,635.5,407.2,635.5,410,629.9z"/>
	<path id="XMLID_977_" class="st3" d="M121,637c-1.2-0.9-2.5-1.7-4.3-3.1c1.5-1.1,2.9-2,4.2-2.9c2.5-0.5,5-1,7.1-1.4
		c0,3,0,5.2,0,7.4C125.7,637,123.3,637,121,637z"/>
	<path id="XMLID_976_" class="st2" d="M128,637c0-2.2,0-4.4,0-7.4c-2.2,0.4-4.7,0.9-7.1,1.4c0-2,0-4.1,0-5.9
		c2.8,1.2,5.6,2.5,8.3,3.6c0.9,2.5,1.9,5.3,2.9,8.2C130.7,637,129.3,637,128,637z"/>
	<path id="XMLID_975_" class="st3" d="M88,637c0.2-1.8,0.1-3.8,0.8-5.4c0.2-0.6,3.3-0.8,3.5-0.4c0.9,1.7,1.2,3.8,1.7,5.7
		C92,637,90,637,88,637z"/>
	<path id="XMLID_969_" class="st4" d="M166.1,309c-7.8-3.9-14.4-9.1-19.3-16.5c-10.8-16.5-9.4-38.6,3.6-56.1
		c16.3-21.9,45.5-29.6,68.5-17.5c14.3,7.6,22.2,19.7,22.3,36.3c0,0.9,0.2,1.9,0.4,3.4c14.6-8.8,30-13.4,45.9-12.6
		c-1.8-6.8-4.7-13.5-5.3-20.4c-1.3-16.5,6.5-28.9,20-37.6c21.1-13.6,51.9-9.2,68.5,9.6c15.7,17.8,16.3,41.4-0.5,58.8
		c-0.1,0.4-0.3,0.7-0.4,1.1c0.5-0.1,1-0.3,1.5-0.4c1.3-0.4,2.6-0.8,4-1.2c0.4,1.1,0.8,2.3,1.2,3.4c-4,1.7-7.9,3.4-12,5
		c-12.9,5-25.2,11.8-39.7,11.6c-14-0.3-27.7,2.5-41.1,6.3c-6.1,1.7-12.1,3.9-18.2,5.9c-9-0.1-15.1,6.7-22.9,9.6
		c-0.4,0.2-0.3,1.5-0.5,2.3c-8.8,6.4-17.7,12.8-26.5,19.3c-3.3,2.4-6.3,5.2-9.5,7.8c-1.7-0.7-3.4-1.5-5.1-2.2
		c0.3-5.2,0.7-10.4,1-15.7c-2.4,0.9-4.7,1.8-6.9,2.6c-7.2-0.2-14.4-0.4-21.7-0.7C171,310.5,168.5,309.7,166.1,309z M365.4,198.6
		c0.3,0.3,0.6,0.6,0.8,0.9c0.3,0.5,0.6,1,1,1.5c0.3-0.2,0.5-0.3,0.8-0.5c-0.3-0.6-0.6-1.2-0.8-1.7c-0.3-0.3-0.7-0.7-1-1
		c-0.4-0.2-0.7-0.5-1.1-0.7C365.2,197.6,365.3,198.1,365.4,198.6z M296.5,250.8c-2-0.6-4.1-1.5-6.1-1.6c-18-1.3-34.5,3-49.2,13.6
		c-0.7,2.2-0.9,4.7-2.2,6.5c-3.7,5.4-8.1,10.3-11.7,15.7c-3.4,5.2-7.2,10.7-4.6,17.7c37.4-22.4,75.8-39.4,120.9-32.6
		c-2-2-3.9-3.7-6.1-4.7c-9.5-4.1-19.1-8.1-28.8-11.8C304.8,252.1,300.6,251.7,296.5,250.8z M209.9,219.4
		c-14.8-7.5-37.7-1.4-52.3,13.3c-12.4,12.5-18.3,33.2-12.5,45.5c-2.6-19,4.2-33.9,17.8-45.8C176.4,220.6,192,215.8,209.9,219.4z
		 M296.5,197.2c22.6-15.5,45.1-14.9,68.6,0.7C352.5,181.7,318.3,175.2,296.5,197.2z"/>
	<path id="XMLID_968_" class="st5" d="M276.1,631.1c-1.5,0.3-3.1,1-4.6,1c-10.2-0.3-20.3-0.7-30.5-1c-2.1-1-4.1-2.1-6.1-3.1
		c3.5-1,7.1-2.1,10.7-3.2c-0.1-0.6-0.3-1.2-0.4-1.8c-3.9,0-7.9-0.1-11.8,0c-3.3,0.1-7.8-1.6-7.7,4.5c0,0.5-1.7,1.2-2.7,1.3
		c-1.6,0.2-3.3,0.1-5,0.2c0,0,0,0,0,0c-1.4-0.7-2.8-1.8-4.3-2c-3.5-0.5-8.6,0.9-10.4-1c-4.3-4.6-10.7-4.6-15-8.4
		c-4.6-4.1-9.8-5.1-15.7-4.7c-2,0.1-4,0-6,0c-6.3-0.1-7.7-1.5-7.3-8c-3,0-5.9,0-8.9,0c-4.8-0.1-5.2-0.8-3.6-5
		c2.8-0.5,5.5-0.5,7.8-1.5c3.3-1.4,6.4-3.4,9.4-5.5c1.3-0.9,2-2.7,3-4c0.3-0.3,0.6-0.6,1-0.9c0.5,0.2,1,0.5,1.4,0.7
		c0.6,0,1.2,0,1.8,0.1c0.6,0.1,1.2,0.1,1.8,0.2c0.6,1.2,1.2,2.4,1.8,3.6c0.7-0.6,1.5-1.3,2.2-1.9c0.6,0,1.3,0.1,1.9,0.1
		c0.3,0,0.7,0.1,1,0.1c0.3,0.3,0.7,0.6,1,0.9c1.6,0.1,3.3,0.2,4.9,0.3c2.4,0.8,4.7,1.7,7.2,2.6c-0.5,0.7-0.8,1.2-1.3,1.9
		c2.5,0.6,5,1.2,7.5,1.8c0,0.3,0,0.6,0,0.9c-3.9,0.3-7.9,0.5-11.8,0.8c0,0.5,0,1,0,1.5c8.4,0.5,16.8,1,25.3,1.6
		c-0.8,0.8-1.3,1.4-1.9,2c0.2,0.3,0.4,0.6,0.6,0.8c2.6-1.1,5.3-2.3,8.3-3.6c-1.1-0.9-1.8-1.5-2.5-2.1c1.3-0.5,2.4-1.1,4.7-2
		c-2.7-0.4-4-0.5-6.4-0.9c2.4-0.8,3.9-1.3,5.7-1.9c-1.3-0.5-2.2-0.8-3.3-1.2c1.2-0.6,2-1,2.9-1.5c3-0.7,6-1.4,9-2.2
		c0.7,0.7,1.5,1.3,2,2.1c8,10.9,18.3,18.5,30.9,23.4c1.2,1.7,2.2,3.5,3.6,5C269.6,624.6,272.9,627.8,276.1,631.1z"/>
	<path id="XMLID_967_" class="st6" d="M376.4,259.5c-0.4-1.1-0.8-2.3-1.2-3.4c1.9-0.7,3.9-1.4,5.8-2.1c0.7,0,1.3,0,2,0
		c9.5-3.5,18.9-7.3,28.6-10.3c10-3.1,14.9-0.1,17.6,10.1c3.9,15,4,30.2,1.5,45.4c-0.6,0.5-1.1,1.1-2.2,2.1
		c-0.4-5.2-0.8-9.7-1.2-14.2c-0.4-10.9-0.6-21.8-1.4-32.7c-0.4-5.5-5.3-10.8-12.3-7.6c9.1,2.2,9.3,2.4,11.2,10.3
		c0.2,1.3,0.5,2.6,0.7,3.9c0.1,1,0.2,2,0.4,3.1c-2.7,1.4-2.7,2.7,0,4c0,1,0,1.9,0,2.9c-0.6,0.7-1.7,1.3-1.8,2
		c-0.4,8.8,0.9,17.7-3.2,26c-1.2-0.6-2.5-1.2-4-1.9c-0.7,1.8-1.3,3.6-2,5.4c-0.3,0-0.5,0-0.8,0.1c-0.2-2.3-0.3-4.7-0.5-6.5
		c-1.7-1.4-3.3-2.7-4.9-4.1c0.7-3,1.4-6,2.1-9c3.5-3.7,2.4-6.9-1-9.8c-0.2-3.7-2.2-1.5-3.2-0.8c-2.9,2.1-5.6,4.6-8.5,6.7
		c-2.5,1.7-4.7,2-5.3-2c-0.5,0.1-1,0.1-1.4,0.3c-7.5,4.6-14.9,9.2-22.3,13.8c-0.4-1.4-0.8-2.8-1.2-4.2c4.5-4.9,8.9-9.7,13.4-14.6
		c-0.7,0.1-1.7,0.1-3,0.2c0.8-1.6,1.4-2.7,2.2-4.2c-1.5,0.3-2.5,0.5-3.5,0.7c-0.1-0.1-0.2-0.3-0.3-0.4c3.8-4.2,7.7-8.4,11.5-12.5
		c-0.4-0.3-0.7-0.7-1.1-1C383.6,256.6,380,258.1,376.4,259.5z"/>
	<path id="XMLID_964_" class="st3" d="M409.7,621.2c-5.5-4-11.7-5-18.3-4.1c-1.6-0.2-3.2-0.3-4.3-0.4c1.7-2.3,4.5-4.6,4.1-6.1
		c-0.5-2.2-0.6-6.6-5.3-5.6c-0.1-1.5-0.1-2.9-0.2-4.4c1.5-2.2,2.9-4.3,4.4-6.5c1.7-2.8,3.3-5.6,5-8.4c1.9-0.2,3.9-0.5,5.8-0.5
		c1.9,0.1,4.5-0.1,5.4,1c2.2,2.8,4.9,2.9,7.9,2.7c2.7-0.2,4.9,0.3,5.6,3.4c-2.2,4.1-2.4,7.8,1.8,10.8c4,2.8,11.3,2.5,14.3-0.5
		c3.5-3.4,2.6-6.7-0.2-10c0.1-1.1,0.1-2.2,0.2-3.4c3.1,0,6.1-0.1,9,0.1c1.5,0.1,3,1.1,4.4,1c2.2-0.1,4.4-0.8,6.6-1.4
		c3.7-1,8-0.7,10.4-4.8c0.4-0.6,2.3-0.6,3.3-0.3c1.5,0.4,2.9,1.4,4.3,2.2c1.8,5.9,0.4,9.9-4.7,13.8c-9.8,7.6-21.4,10.8-33,14.1
		C427.5,616.5,418.6,618.8,409.7,621.2z M442.8,606.5c-8.9,0-16.6,0-24.7,0C422.8,614.3,434,615.1,442.8,606.5z"/>
	<path id="XMLID_963_" class="st2" d="M173,589.1c-0.6-0.1-1.2-0.1-1.8-0.2c-0.6,0-1.2,0-1.8-0.1c-0.5-0.2-1-0.5-1.4-0.7
		c-0.9-0.8-1.6-1.9-2.6-2.4c-4.3-2.1-8.7-4-13.1-5.9c-16.7-8.8-31.2-20.4-42.3-35.7c-16.6-22.9-23-48.7-20.4-76.7
		c2.1-23.5,10.7-44.6,25-63.4c0.5,1.1,1.1,2.1,1.6,3.2c-3.5,7.2-6.9,14.4-10.4,21.6l0.1,0c-1.8,4.3-3.8,8.4-5.3,12.8
		c-5.7,17.1-8,34.6-4.6,52.5c0.7,3.6,1.5,7.2,2.2,10.8c3,12.7,8,24.5,15.7,35.1c2.1,2.3,4.4,4.4,6.3,6.9
		c7.1,9.3,15.7,16.8,25.9,22.6c6,3.2,12,6.4,18,9.6c6.7,2.6,13.4,5.2,20,7.7c0.8,0.7,1.4,1.8,2.3,2c3.3,0.8,6.6,1.7,9.9,2
		c8.3,0.8,16.5,1.4,24.8,2.1c-0.9,0.4-1.7,0.9-2.9,1.5c1.1,0.4,2,0.7,3.3,1.2c-1.8,0.6-3.3,1.1-5.7,1.9c2.3,0.3,3.7,0.5,6.4,0.9
		c-2.2,1-3.4,1.5-4.7,2c0.7,0.6,1.4,1.1,2.5,2.1c-3.1,1.3-5.7,2.5-8.3,3.6c-0.2-0.3-0.4-0.6-0.6-0.8c0.6-0.6,1.1-1.2,1.9-2
		c-8.5-0.5-16.9-1-25.3-1.6c0-0.5,0-1,0-1.5c3.9-0.3,7.9-0.5,11.8-0.8c0-0.3,0-0.6,0-0.9c-2.5-0.6-4.9-1.2-7.5-1.8
		c0.5-0.7,0.8-1.3,1.3-1.9c-2.5-0.9-4.9-1.7-7.2-2.6c-1.6-0.1-3.3-0.2-4.9-0.3c-0.3-0.3-0.7-0.6-1-0.9c-0.3,0-0.7-0.1-1-0.1
		c-0.6,0-1.3-0.1-1.9-0.1C175.7,590.2,174.4,589.7,173,589.1z"/>
	<path id="XMLID_962_" class="st7" d="M419.8,592.4c-0.6-3.1-2.9-3.6-5.6-3.4c-3,0.2-5.6,0.1-7.9-2.7c-0.9-1.1-3.6-1-5.4-1
		c-1.9-0.1-3.9,0.3-5.8,0.5c1.6-7.6,3.3-15.2,4.9-22.8c12.4,1.7,25,2.7,37.1,5.5c10.5,2.4,20.6,6.7,30.6,10.8
		c2.6,1.1,4.2,4.4,6.3,6.7c-1.4-0.7-2.8-1.7-4.3-2.2c-1-0.3-2.9-0.2-3.3,0.3c-2.4,4-6.7,3.8-10.4,4.8c-2.2,0.6-4.4,1.2-6.6,1.4
		c-1.5,0.1-2.9-0.9-4.4-1c-2.9-0.2-5.9-0.1-9-0.1c-0.1,1.2-0.1,2.3-0.2,3.4C430.5,588.7,425.2,589.3,419.8,592.4z"/>
	<path id="XMLID_959_" class="st1" d="M475.2,227c3.6,0.3,7.2,0.6,10.9,0.9c0.9-0.6,1.7-1.2,2.7-1.7c0.8-0.5,1.7-0.8,2.5-1.2
		c0.5,0.4,1.3,1.3,1.4,1.2c1.7-1.3,3.4-2.6,4.8-4.1c2.4-2.7,4.6-5.6,7.3-8.9c0.6,2.5,1,4.1,1.3,5.7c4.3,20.9-0.6,16.3,20.9,24.2
		c0.7,0.5,1.5,1,2.6,1.7c-5.2,1.1-10.1,1.8-14.7,3.4c-2.2,0.7-3.9,3.1-5.8,4.7c-0.8,3-1.5,6.1-2.3,9.1c-0.5,2-1.2,3.9-1.9,5.9
		c-2.2-1.2-4.5-2.4-7.2-3.9c-1.7,1.4-3.8,3.1-5.9,4.8c-0.6-0.3-1.3-0.6-1.9-0.9c-1.3-4.3-2.7-8.6-4-12.9c0.6-1.7,1.3-3.4,1.9-5.1
		c-0.6-2.3-1.2-4.6-1.8-6.8c-0.5,0.1-1.1,0.2-1.6,0.3c-0.5,0.8-0.9,1.7-1.4,2.5c-0.6-0.7-1.1-1.3-1.7-2c-0.6-1.9-0.6-4.3-1.8-5.6
		c-3.4-3.6-7.3-6.7-11.3-10.2C471.4,227.7,473.3,227.3,475.2,227z M500.1,253.1c-2.4,0-4.1-0.2-5.7,0.1c-1.5,0.2-4,0.8-4.1,1.4
		c-0.2,1.8,0,4.5,1.2,5.3c2.3,1.6,5.3,2.3,8.6,3.6C500.1,259.1,500.1,256.1,500.1,253.1z"/>
	<path id="XMLID_958_" class="st7" d="M152.2,579.8c4.4,2,8.8,3.9,13.1,5.9c1,0.5,1.8,1.6,2.6,2.4c-0.3,0.3-0.6,0.6-1,0.9
		c-3.4,0.9-7,1.4-10.3,2.6c-4.5,1.6-8.8,3.5-13.1,5.4c-1.5,0.7-4.1,2-4,2.8c0.3,2.1,1.2,5.2,2.7,5.8c7.9,2.9,13,11.4,22.8,10.9
		c4.3-0.2,5.4,3.3,2.9,6.5c-12.3-3.3-24.6-6.3-36.8-10.1c-3.4-1.1-6.5-4-9.1-6.7c-3.8-4-3-8.9,1.3-12.5c7.8-6.5,17.2-9.7,26.7-12.7
		C150.8,580.8,151.5,580.2,152.2,579.8z"/>
	<path id="XMLID_957_" class="st2" d="M400.1,563c-1.6,7.6-3.3,15.2-4.9,22.8c-1.7,2.8-3.3,5.6-5,8.4c-5.1-0.8-1.8-3.5-0.8-5
		c2.9-4.8,5.2-9.6,4.4-15.4c-0.1-0.6-0.1-1.3-0.2-1.9c0.1-4.9,0.2-9.9,0.3-14.8c-0.8-8.8-5.3-15.5-12.1-20.9
		c-1.9-3.3-3.9-6.7-5.8-10c-0.7-4.1-1.4-8.1-2.2-12.6c-1,0.9-1.5,1.3-2,1.8l0.1-0.2c-0.4-0.7-0.8-1.3-1.1-2
		c-3.5-7.1-7.1-14.2-10.6-21.4c-5-9.7-10.1-19.4-15.1-29c-1.4-2.7-2.9-5.2-4.1-8c-0.3-0.7,0.5-1.9,0.7-2.8
		c5.5,7.9,11,15.8,16.5,23.6c1.3,2.2,2.6,4.4,3.9,6.5c6.4,14.4,12.8,28.8,19.3,43.1c0.8,1.8,2,3.5,3.5,4.8
		C395,538.7,399.3,550,400.1,563z"/>
	<path id="XMLID_956_" class="st6" d="M276.1,631.1c-3.2-3.3-6.5-6.5-9.6-9.9c-1.4-1.5-2.4-3.3-3.6-5c1.1-0.4,2.4-0.7,3.4-1.3
		c2-1.2,3.8-2.6,5.7-4c5.4-3.1,10.8-2.7,16.3,0c3,1.5,6.2,3.1,9.4,3.7c1.9,0.4,4.2-1.1,6.3-1.7c4.1,0.4,8.7-1.7,12.2,2.2
		c-2.8,1.6-5.7,3.1-8.5,4.7c-1.2,0.7-3.2,1.4-3.5,2.4c-1.3,5.2-5.5,7.2-9.6,9.4C288.5,631.5,282.3,631.3,276.1,631.1z"/>
	<path id="XMLID_955_" class="st2" d="M416,427.6c4.2,0.5,4.7,4.1,3.8,6.6c-2.1,6-4.3,12.3-8.1,17.2c-4.3,5.5-10.5,9.5-15.8,14.1
		c0-2,0.8-4.7-3-3.5c-0.3-0.3-0.7-0.7-1-1c-0.6,0-1.2,0-1.8-0.1c-0.5-3.8-2-6.5-6-8.2c-1.9-0.7-3.2-3.6-4-5.8
		c-0.6-1.8-0.1-3.9-0.1-5.9c-0.5-1.7-1.1-3.4-1.6-5c1.3-1.1,2.6-2,3.7-3.1c3.3-3.2,6.6,0.8,9.9,0c1.2,0.6,2.4,1.3,3.6,1.9
		c-0.7,2.5-1.6,5-2.2,7.6c-0.7,3.1,0.5,4.9,3.8,4.5c4.2-0.4,8.4-1,13-1.6c-3.1-3.4-5.3-5.9-7.6-8.5c2.6,0.3,5.2,0.7,7.8,0.7
		c2.1,0,4.6-0.2,6.3-1.3c0.7-0.5-0.4-3.6-0.7-5.4c0-0.6,0-1.2,0.1-1.8C416,428.6,416,428.1,416,427.6z"/>
	<path id="XMLID_954_" class="st8" d="M226,451.8c-3.3-1.2-6.7-2.4-10-3.5c-1-5-10.5-9.9-16.9-8.6c-7.4-4.9-14.7-10-18.9-18
		c-3-5.6-4.7-11.8-7.1-18c11.8-1.8,16-6.9,18.8-21c0.2-1,0.1-2,0.3-3c0.8-3.7,3.5-8.3,2.2-10.8c-2.3-4.3-6.8-7.6-10.8-10.8
		c-1.3-1-4.2-0.9-6-0.3c-5.2,1.8-6.5-2.2-8.1-5.2c-1.7-3.2,1-4.6,3.5-5.9c2.8-1.5,5.4-3.2,8.1-4.8c0.4,1.1,0.7,2.2,1.1,3.3
		c-1.7,2.4-7.3,2.5-4.3,7.6c7.9,1.1,9.5,2.1,14,8.6c0.9,1.3,2,2.6,3,3.8c4.4,4.4,1.5,9.5,1.2,14.2c-0.8,10-2.6,19.8-12.3,25.7
		c-1.9,0.5-3.8,0.9-6,1.5c3,11.4,10.6,18.9,19.4,25.5c4.2,2.5,8.5,5,12.7,7.4l0.1,0c4.7,2.2,9.5,4.3,14.2,6.5
		c0.6,0.1,1.2,0.3,1.8,0.4c2.1,0.9,4.1,1.8,6.2,2.7C229.9,449.7,226.3,447.2,226,451.8z"/>
	<path id="XMLID_953_" class="st3" d="M168,623c2.4-3.2,1.3-6.8-2.9-6.5c-9.8,0.5-14.9-8-22.8-10.9c-1.5-0.5-2.5-3.7-2.7-5.8
		c-0.1-0.8,2.4-2.1,4-2.8c4.3-1.9,8.7-3.9,13.1-5.4c3.3-1.2,6.9-1.8,10.3-2.6c-1,1.4-1.7,3.1-3,4c-3,2.1-6.1,4.1-9.4,5.5
		c-2.2,1-4.9,1-7.8,1.5c-1.5,4.2-1.1,4.9,3.6,5c3,0.1,5.9,0,8.9,0c-0.4,6.5,1.1,7.9,7.3,8c2,0,4,0.1,6,0c5.8-0.4,11,0.6,15.7,4.7
		c4.3,3.8,10.6,3.8,15,8.4c1.8,1.9,6.8,0.5,10.4,1c1.5,0.2,2.9,1.3,4.3,2C201.3,627.1,184.6,625,168,623z"/>
	<path id="XMLID_952_" class="st8" d="M392,433c-3.3,0.8-6.6-3.2-9.9,0c-1.1,1.1-2.4,2-3.7,3.1c0.5,1.6,1.1,3.3,1.6,5
		c-0.4,0-0.8,0.1-1.1,0.1c-0.3-0.1-0.6-0.2-0.8-0.4c-0.6-4.1-0.9-4.3-3-2.8c-4.4,1.6-8.8,3.3-13.2,4.9l0-0.1
		c-1.7,0.7-3.4,1.4-5.1,2.1c-3.6,1.1-7.1,2.2-10.7,3.3c-1.9,0.8-5.5-0.5-4.4,3.7c-0.3,1-1,2.1-0.7,2.8c1.2,2.7,2.7,5.3,4.1,8
		c-1.8-2.3-3.7-4.5-5.2-7c-1.8-3.1-3.7-4.2-7.7-3.3c-4.2,1-8.8,0.4-13.3,0.4c1.6-1,3-2.4,4.8-3c3.4-1.2,6.9-2,10.4-2.9
		c17.8-3.6,34.8-9.7,50.6-18.7c7.9-4.6,15-10.7,22.5-16.1c7.6-6.3,12.3-14.3,16.8-23.9c-2.3,0.4-3.1,0.6-3.9,0.7
		c0.7-0.7,1.3-1.4,2-2.1c1.5,0.6,3,1.3,4.4,1.9c-3.1,13.1-12,22.2-21.4,30.5c3.5,1.7,6.9,3.2,10.1,5.1c0.7,0.4,0.6,2,0.8,3.1
		c0,0.5-0.1,1-0.1,1.5c-3.8-4.7-8.9-6.1-14.5-4.8c-3.7,0.9-7,3.1-10.5,4.7c-0.5,0.2-1.1,0.5-1.4,0.6
		C390.4,430.8,391.2,431.9,392,433z"/>
	<path id="XMLID_951_" class="st2" d="M226,451.8c0.3-4.6,3.9-2.1,6.1-2.8c9.3,1.4,18.7,2.8,28,4.3c1.5,0.6,3,1.7,4.6,1.7
		c7,0.2,13.9,0,20.9,0.2c1.5,0,3,1.1,4.5,1.8c-0.7,0.2-1.4,0.5-2.1,0.7c-7.4-0.2-14.8-0.4-22.2-0.6c0.1,0.6,0.3,1.1,0.4,1.7
		c-1.3,1.2-2.9,2.1-3.8,3.5c-3.8,6-4,12.8-4.1,19.7c-0.1,3.1-0.1,6.2-0.2,9.4c-0.7,0.7-1.8,1.2-2,2c-0.8,3.5-1.3,7.2-2,10.7
		c-1.3,4.4-2.5,8.7-3.8,13.1c-0.7,1.1-1.7,2.1-2.1,3.3c-1.8,4.9-3.4,9.8-5,14.7c-0.3-0.1-0.7-0.2-1-0.3c0-3.2,0-6.5,0-9.7
		c0.7-2,1.4-4,2.1-5.9c1-2.6,1.9-5.1,2.9-7.7c4.3-17.6,8.6-35.1,12.8-52C248.8,456.9,237.4,454.4,226,451.8z"/>
	<path id="XMLID_950_" class="st8" d="M421,298.9c4.1-8.3,2.8-17.2,3.2-26c0-0.7,1.1-1.4,1.8-2c0,8.3,0,16.5,0,25c0.5-3,1-6,1.4-9
		c0.4,4.5,0.7,9,1.2,14.2c1.1-1,1.6-1.6,2.2-2.1c-0.6,1.9-1.1,3.9-1.7,5.8c-3.7,1.2-3.9,2.1-1,5.2c-4.2,20.4-11.5,39.3-25.4,54.9
		c1.3,2.5,2.5,4.7,3.7,7c-5.1,0.2-5.5-4.8-8.2-7.3c-1.4-3.2-2.7-6.4-4.1-9.5c0.6-0.1,1.5-0.5,1.6-0.3c1.3,1.6,2.4,3.4,4,5.7
		c13.3-17.9,21.9-36.8,24.2-58.3c0.4-1.5,0.8-2.9,1.4-5C423.3,298,422.1,298.5,421,298.9z"/>
	<path id="XMLID_949_" class="st3" d="M472.1,528.5c1.7,1.2,2.7,1.6,3.2,2.4c2.6,4,5.5,6,10.7,4.3c2.6-0.9,5.2,1.4,3.5,4
		c-3.7,5.6-3.6,10.6,0.2,15.8c0.2,0.3-0.1,0.9-0.2,1.4c-2.1,0.2-11.9,4.4-14.9,6.5c-0.8-1.6-2.3-3.2-2.2-4.8
		c0.2-6.2-3.6-9.2-8.4-11.7c-1.2-0.6-1.9-2-2.9-3c1.3-0.8,2.6-2,4-2.2c3.2-0.4,5.3-1.4,5.4-5.1C470.4,533.8,471.3,531.6,472.1,528.5
		z"/>
	<path id="XMLID_948_" class="st5" d="M294.7,631.8c4.1-2.2,8.3-4.2,9.6-9.4c0.3-1,2.2-1.7,3.5-2.4c2.8-1.6,5.7-3.2,8.5-4.7
		c1.6-0.1,3.2-0.2,4.9-0.3c0.9,0.3,1.9,0.6,2.8,0.9c2.4,1.5,6.4,2.6,6.9,4.6c1.4,5.3,5,6.1,9.2,6.6c2,0.2,4,0.3,5.9,0.5
		c0,0.5,0,1.1,0,1.6c-4.1,0.6-8.1,1.5-12.2,1.6C320.8,631.2,307.8,631.4,294.7,631.8z"/>
	<path id="XMLID_947_" class="st7" d="M346.1,629.1c0-0.5,0-1.1,0-1.6c9.5-0.6,17.6-3.2,21.1-13.3c4.9-3.1,9.8-6.3,14.7-9.4l0.2,0.2
		c0.6,0.6,1.4,1.9,1.7,1.8c0.9-0.3,1.5-1.2,2.2-1.8c0,0,0,0,0,0c4.6-0.9,4.7,3.4,5.3,5.6c0.4,1.5-2.4,3.7-4.1,6.1
		c1,0.1,2.7,0.3,4.3,0.4c-3.1,2.2-6.1,4.5-5.7,8.9c-4,0.1-8.1,0-12.1,0.4C364.4,627.2,355.2,628.2,346.1,629.1z"/>
	<path id="XMLID_946_" class="st9" d="M465.9,323.4c1.7-4.3,3.4-8.6,5.2-12.9c2-5.8,3.9-11.5,5.9-17.3c2-6.4,4.1-12.8,6.1-19.2
		c1,0.4,2,0.8,3,1.2c-2,7.4-4,14.7-6,22.1c-1,3.9-1.9,7.9-2.9,11.8c-1,2-2.3,3.9-2.9,6c-5.5,17.9-10.9,35.8-16.4,53.7
		c-0.3-1.3-0.6-2.5-0.9-3.8c0.1-0.3,0.1-0.6,0-0.9c-0.4-0.7-0.7-1.4-1.1-2c2.1-6.7,4.5-13.4,6.3-20.2
		C463.7,335.8,464.7,329.5,465.9,323.4z"/>
	<path id="XMLID_943_" class="st1" d="M483,188c0.5,0,1.2-0.3,1.5,0c3.7,4.2,8,7.7,13.1,10.2c1.5,0.7,2.6,2.1,4,2.9
		c4,2.3,4.9,5.8,4.3,10c-2.3,2-4.7,4-7,6c-1.2-1.8-0.7-5.8-4.4-4.6c-2.3,0.7-4.1,2.9-6.3,4.5c-2.7-5-5.3-9.9-7.5-14
		C481.5,197.9,482.2,193,483,188z M489,208.3c1.9-0.9,3.3-1.5,4.7-2.1c0.1-0.5,0.1-1,0.2-1.5c-1.9-0.7-3.9-1.4-6.7-2.3
		C488,205,488.4,206.3,489,208.3z"/>
	<path id="XMLID_942_" class="st8" d="M457.9,368.7c5.4-17.9,10.8-35.8,16.4-53.7c0.6-2.1,1.9-4,2.9-6c-1.1,4.8-1.9,9.7-3.2,14.5
		c-9.3,32.2-18.7,64.4-28.1,96.5c-1.5,5.1-3.1,5.8-7.4,3.3c-1.2-0.7-2.5-3.1-2.2-4.4c0.9-4.4,2.5-8.6,3.8-12.9c0.3,1,0.7,2,1,3
		c-0.7,2.5-1.1,5.1-2.1,7.5c-1.7,4.3-0.1,5.7,4.1,5.6c3.7-13.3,7.4-26.3,11-39.3C455.3,378.2,456.6,373.5,457.9,368.7z"/>
	<path id="XMLID_941_" class="st2" d="M157.9,435.1c12,4.3,24.1,8.4,36.1,12.8c18.1,6.6,32.7,17.5,42.2,34.6c0.4,0.7,0.7,1.5,1,2.3
		c-1.1-0.3-2.1-0.6-3.2-0.9c-1.6-2.4-3.2-4.7-4.9-7.1c-11.2-15.2-27-23.2-44.7-28.1c-0.7-0.2-1.6,0.2-2.4,0.3
		c-1.4-0.7-2.7-1.3-4.1-2c-4.7-2-9.4-3.9-14.1-5.9c-1.5-0.7-2.9-1.4-4.4-2.1c-0.3,0.1-0.5,0-0.6-0.3c-0.4-0.3-0.7-0.5-1.1-0.8
		c0,0,0,0.1,0,0.1C157.9,437.1,157.9,436.1,157.9,435.1z"/>
	<path id="XMLID_940_" class="st10" d="M483,188c-0.8,5-1.5,9.9-2.3,14.9c2.2,4.2,4.8,9,7.5,14c2.1-1.6,4-3.8,6.3-4.5
		c3.6-1.1,3.1,2.8,4.4,4.6c-2.5,2.7-5.1,5.3-7.6,8c-0.8,0.4-1.7,0.7-2.5,1.2c-0.9,0.5-1.8,1.2-2.7,1.7c0-1.2,0.1-2.3,0.1-3.5
		c0-10.1-0.7-10.6-10.5-7.9c-0.3,0.1-0.8-0.4-1-0.5c1.8-2.6,3.6-5.2,4.5-6.6c-1-3.2-1.9-5.1-2.1-7.1c-0.2-1.6,0.2-3.4,0.3-5
		c-1.7,0.3-3.3,0.6-5.7,1c-1-1.5-2.2-3.5-3.5-5.5c3.3,0.7,6.5,1.3,9.8,2c0.1-0.3,0.3-0.6,0.4-1c-0.9-0.8-1.9-1.5-2.5-2.4
		c-0.4-0.8-0.7-2.2-0.2-2.8c0.4-0.6,1.8-0.5,2.8-0.8c0.9-0.3,1.8-0.6,2.7-0.9c0.6,0,1.3,0,1.9,0C483,187.3,483,187.7,483,188z"/>
	<path id="XMLID_939_" class="st6" d="M182,345c-0.4-1.1-0.7-2.2-1.1-3.3c-7.7-8.2-12.3-17.9-14-29c-0.2-1.2-0.5-2.5-0.8-3.7
		c2.5,0.8,4.9,1.5,7.4,2.3c-0.2,0.6-0.4,1.2-0.5,1.8c0.3,1.3,0.5,2.5,0.8,3.8c0.4,0.1,0.5,0.3,0.4,0.6c-0.1,3.8-0.5,7.7,4,9.5l0,0
		c0,3.6,1.3,6.3,5,7.4c0.3,0.1,0.6,0.2,0.9,0.3c1.6,1,4.1,3,4.5,2.7c4.4-3.9,8.4-8.1,12.5-12.3c1.7,0.7,3.4,1.5,5.1,2.2
		c-1.4,1.6-2.8,3.1-4.2,4.7c-1.3,1-2.7,2-4,3c-1,0.7-1.9,1.3-2.9,2c-0.7,0.7-1.4,1.3-2.1,2C189.3,340.9,185.6,343,182,345z"/>
	<path id="XMLID_938_" class="st11" d="M432.1,211.3c0,3.3,0,7,0,10.7c0,2.4-0.1,4.4-3.5,3.7c-3.2-0.7-6.5-1-9.7-1.5
		c-1.5-3.2-3.4-7-5.6-11.4c5.1,0.1,7.1-3.7,8.3-7.7C425.3,207.4,428.6,209.3,432.1,211.3z"/>
	<path id="XMLID_937_" class="st3" d="M412.4,505.7c3.6-0.9,6.7-1.6,9.6-2.4c1.2,2.7,2.6,6,4.2,9.6c-0.9,2.1-2.1,4.8-3.3,7.4
		c-3,0.2-6.1,0.5-9.5,0.7c-1.4-2-3.3-4.6-5.4-7.7c0.9-0.6,3.2-1.3,4.2-2.8C413.1,509.2,412.4,506.9,412.4,505.7z"/>
	<path id="XMLID_936_" class="st8" d="M393,462c3.8-1.2,2.9,1.5,3,3.5c-9.6,4.8-19.3,9.7-28.9,14.5c-1.6,0.8-3.3,1.4-5,2.1
		c-1.3-2.2-2.6-4.4-3.9-6.5c1.6,0.7,3.5,2.3,4.8,1.9c3.9-1.2,7.5-3.3,11.2-5c0.3,0,0.6-0.2,0.8-0.4c3.2-1.3,6.8-2,9.5-3.9
		c2.3-1.7,3.6-4.7,5.4-7.1l0.2-0.1c0.6,0,1.2,0,1.8,0.1C392.3,461.3,392.7,461.7,393,462z"/>
	<path id="XMLID_935_" class="st8" d="M465.9,323.4c-1.2,6.1-2.2,12.4-3.8,18.4c-1.8,6.8-4.2,13.5-6.3,20.2c0.4,0.7,0.7,1.4,1.1,2
		c0.1,0.3,0.1,0.6,0,0.9c-1,0.7-2.5,1.1-2.8,2c-1.6,4.6-2.8,9.4-4.1,14.1c-0.7,2.3-1.3,4.7-2,7c0,0,0,0,0,0c-1.2,1-2.4,1.9-3.5,2.9
		c6.8-22.2,13.7-44.3,20.6-66.5C465.2,324.1,465.6,323.7,465.9,323.4z"/>
	<path id="XMLID_934_" class="st12" d="M491.2,225.1c2.5-2.7,5.1-5.3,7.6-8c2.3-2,4.7-4,7-6c1.4,6.4,2.5,12.9,4.3,19.3
		c0.7,2.3,2.7,4.8,4.8,6c4.1,2.3,8.7,3.8,13.1,5.7c-0.4,0.4-0.7,0.8-1.1,1.2c-21.5-7.9-16.6-3.3-20.9-24.2c-0.3-1.6-0.7-3.2-1.3-5.7
		c-2.7,3.3-4.9,6.2-7.3,8.9c-1.4,1.6-3.1,2.8-4.8,4.1C492.5,226.4,491.7,225.5,491.2,225.1z"/>
	<path id="XMLID_933_" class="st11" d="M455.7,272.7c-1.2,3.5-2.2,6.6-3.1,9.2c-3,0-5.8,0-8.2,0c-1.4-2.4-3.1-5.2-4.7-7.8
		c2.5-2,5.3-4.2,8.4-6.7c0.7,0.9,1.6,2.5,3,3.5C452.3,271.8,454.1,272.1,455.7,272.7z"/>
	<path id="XMLID_932_" class="st2" d="M426.4,388.9c-1.5-0.6-3-1.3-4.4-1.9c-1.3-0.7-2.7-1.4-4-2.1l0,0c1.3-0.7,3.1-1.2,3.7-2.3
		c0.4-0.8-0.7-2.5-1.2-3.8c-0.8,0.3-1.6,0.7-2.4,1c-2.4-0.6-4.9-0.9-7.1-1.9c-0.9-0.4-1.2-2.2-1.7-3.4c0.1-0.1,0.2-0.2,0.3-0.4
		c0-0.1,0-0.2-0.1-0.3c5.7,2.2,11.4,2.9,17.8-1.1C427,379,426.7,383.9,426.4,388.9z"/>
	<path id="XMLID_931_" class="st12" d="M157.9,435.1c0,1,0,2,0,3c-3.9-3.5-7.9-7-11.8-10.6c0-0.3-0.1-0.5-0.3-0.6
		c-0.8-1.8-1.9-3.5-2.5-5.4c-3.8-11.5-4.3-22.9,2.7-33.6c0.3,0.3,0.6,0.6,0.8,0.9C138.4,405,141.1,424.4,157.9,435.1z"/>
	<path id="XMLID_930_" class="st3" d="M217.9,629.1c1.7,0,3.3,0.1,5-0.2c1-0.2,2.7-0.9,2.7-1.3c-0.1-6.1,4.4-4.4,7.7-4.5
		c3.9-0.1,7.9,0,11.8,0c0.1,0.6,0.3,1.2,0.4,1.8c-3.6,1.1-7.3,2.1-10.7,3.2c2,1,4.1,2,6.1,3.1C233.3,630.4,225.6,629.7,217.9,629.1z
		"/>
	<path id="XMLID_929_" class="st12" d="M475.2,227c-1.9,0.3-3.8,0.6-7,1.2c4,3.5,7.9,6.6,11.3,10.2c1.2,1.3,1.2,3.7,1.8,5.6
		c-0.9,2.2-1.9,4.4-2.8,6.6c-1.1,2.3-2.3,4.7-3.5,7.3c2.7,0,4.9,0,7.2,0c0.2,0.7,0.5,1.4,0.7,2.2c-0.2-0.1-0.5-0.1-0.7,0.1
		c-2.9,0-5.8,0-9.8,0c2.4-5.6,4.2-10.4,6.4-14.9c1.3-2.7,1-4.4-1.3-6.4c-3.4-2.9-6.4-6.3-9.5-9.5c-0.9-1-1.6-2.2-2.4-3.3
		c0.3-0.5,0.6-1.1,0.9-1.6C469.4,225.3,472.3,226.1,475.2,227z"/>
	<path id="XMLID_928_" class="st8" d="M116.1,407.2c-0.5-1.1-1.1-2.1-1.6-3.2c5.1-5.1,9.8-10.7,15.5-15.1c3.6-2.7,8.6-3.6,13.2-4.9
		c1.2-0.3,2.9,0.9,4.4,1.4c-0.2,0.2-0.4,0.4-0.6,0.6c-4.5,1.3-9.8,1.5-13.3,4.2C127.2,395.1,121.9,401.5,116.1,407.2z"/>
	<path id="XMLID_925_" class="st2" d="M545.3,548.5c-4.3,0-8-3.9-8.1-8.6c-0.1-4.7,3.3-8.2,8.1-8.2c4.6,0,7.9,3.1,8,7.7
		C553.4,544.3,549.7,548.5,545.3,548.5z M539.1,539.7c-0.1,3.2,3,6.8,5.9,6.8c3,0.1,6.4-3.2,6.4-6.4c-0.1-3.9-2.1-6.2-6-6.6
		C542.3,533.1,539.2,536.3,539.1,539.7z"/>
	<path id="XMLID_924_" class="st12" d="M234.1,484c1.1,0.3,2.1,0.6,3.2,0.9c2.6,8.1,5.1,16.2,7.8,24.2c0.3,0.9,1.3,1.5,1.9,2.3
		c-1,2.6-1.9,5.1-2.9,7.7c0.3-12.4-3.8-23.5-10-34C234,484.6,234,484.3,234.1,484z"/>
	<path id="XMLID_923_" class="st13" d="M409.3,374.6c0.6,1.2,0.8,3,1.7,3.4c2.2,1,4.7,1.3,7.1,1.9c0.8,0.1,1.6,0.1,2.7,0.2
		c-1.1,1.8-2,3.4-2.8,4.9c0,0,0,0,0,0c-1.9,1.8-3.9,3.6-5.8,5.5c1.7-3,3.3-5.9,4.7-8.5c-3.3-1.4-6.6-3.3-10.1-4.3
		c-7-1.8-7.2-7.7-8.7-12.9c2.7,2.5,3.1,7.5,8.2,7.3C407.3,372.9,408.3,373.7,409.3,374.6z"/>
	<path id="XMLID_922_" class="st3" d="M533.4,191.4c-1.6,3-2.9,5.5-4.5,8.4c-2.2-2.3-4.2-4.5-6.5-6.9c1.4-2,3-4.2,4.8-6.6
		C529.3,188,531.4,189.7,533.4,191.4z"/>
	<path id="XMLID_921_" class="st10" d="M482.1,260.1c0.2-0.2,0.4-0.2,0.7-0.1c0.6,1.8,1.3,3.6,1.9,5.4c0.9,2.6,2.4,3.8,5.2,2.6
		c0.6,0.3,1.3,0.6,1.9,0.9c0,1.3,0,2.6,0,4.3c-1.5,0-2.9,0-4.3,0c-0.5,0.6-1,1.3-1.5,1.9c-1-0.4-2-0.8-3-1.2
		C477.7,269.7,482.8,264.7,482.1,260.1z"/>
	<path id="XMLID_920_" class="st5" d="M511.2,600c1.6,2.4,3.3,4.8,5,7.2c-0.7,1.3-1.4,2.5-2,3.7c-0.9,0.8-1.9,1.6-2.8,2.3
		c-1.7-1.9-3.5-4-5.3-6C507.7,604.8,509.5,602.4,511.2,600z"/>
	<path id="XMLID_919_" class="st2" d="M511.2,600c-1.7,2.4-3.4,4.8-5.2,7.2c1.8,2,3.6,4.1,5.3,6c0.9-0.8,1.9-1.5,2.8-2.3
		c-0.1,2.9-0.3,5.8-0.4,9c-3.9-4.5-7.3-8.4-10.8-12.5c1.5-2,3.8-4.9,6.1-7.7C509.2,599.5,510.4,599.9,511.2,600z"/>
	<path id="XMLID_918_" class="st2" d="M444.5,390.9c1.2-1,2.4-1.9,3.5-2.9c-2.3,7-4.7,14-7,21c-0.3-1-0.7-2-1-3
		C441.5,401,443,396,444.5,390.9z"/>
	<path id="XMLID_917_" class="st2" d="M504.9,268c0.6-2,1.3-3.9,1.9-5.9c0.8-3,1.5-6.1,2.3-9.1c0.6,0,1.3,0,1.9,0
		c-0.7,6.2-1.5,12.3-2.4,20.2C506.9,270.7,505.9,269.4,504.9,268z"/>
	<path id="XMLID_914_" class="st2" d="M445.2,455.2c1.5,2.2,4.1,4.2,4.3,6.5c0.4,3.5-2.2,5.9-6,5.8c-3.5-0.1-5.9-2.6-5.3-5.9
		c0.5-2.4,3-4.3,4.6-6.5C443.7,455.2,444.4,455.2,445.2,455.2z M443.9,455.9c-1.8,2.8-3.8,4.5-3.6,5.9c0.1,1.5,2.3,2.8,3.6,4.1
		c1.4-1.4,3.6-2.6,3.8-4.2C447.9,460.4,445.8,458.7,443.9,455.9z"/>
	<path id="XMLID_913_" class="st14" d="M481.2,184.7c-1.1-0.5-2.3-0.7-3.2-1.4c-1.3-0.9-2.3-2.4-3.7-3.1c-6-2.7-8.7-15.1-4.3-20.2
		c0.4,6,0.8,11.9,1.2,17.7C476.5,178.5,479.8,180.4,481.2,184.7z"/>
	<path id="XMLID_912_" class="st8" d="M511,253c-0.6,0-1.3,0-1.9,0c1.9-1.6,3.6-4,5.8-4.7c4.6-1.5,9.5-2.2,14.7-3.4
		c-1.1-0.8-1.9-1.2-2.6-1.7c0.4-0.4,0.7-0.8,1.1-1.2c1.5,0.8,3,1.7,4.5,2.5c0,0.5,0,0.9,0,1.4c-4.5,1.1-9,2-13.3,3.4
		C516.3,250.2,513.7,251.8,511,253z"/>
	<path id="XMLID_911_" class="st2" d="M199,439.6c6.4-1.3,15.8,3.6,16.9,8.6C210.3,445.4,204.7,442.5,199,439.6z"/>
	<path id="XMLID_910_" class="st14" d="M538.2,278.4c-3.1,0.5-5.7,1.3-8,0.9c-0.7-0.1-1.5-5.3-1-5.6
		C533,271.7,535.4,274.2,538.2,278.4z"/>
	<path id="XMLID_909_" class="st14" d="M459.3,174.9c1,0.5,2.1,0.9,3.1,1.4c3.6,1.8,3.3,3.9,1.3,5.5c0.8,2.7,1.5,5,2.2,7.2
		C460.1,186,460.1,180.3,459.3,174.9z"/>
	<path id="XMLID_908_" class="st10" d="M480.6,157.6c1.4,3.1,2.5,4.9,3.1,6.9c0.1,0.5-1.9,2.2-2.2,2c-1.9-1-3.5-2.3-5.2-3.6
		C477.4,161.5,478.5,160.1,480.6,157.6z"/>
	<path id="XMLID_907_" class="st12" d="M486.1,275.1c0.5-0.6,1-1.3,1.5-1.9c-1.8,7-3.6,13.9-5.5,20.9c-0.3,1.1-1.3,2.1-2,3.1
		C482.1,289.8,484.1,282.5,486.1,275.1z"/>
	<path id="XMLID_906_" class="st7" d="M95.6,582.5c-2.4,1.6-3.8,3.2-4.7,3c-1.4-0.4-2.5-2.1-3.7-3.2c1.2-1.1,2.4-2.9,3.7-3
		C92,579.1,93.4,580.9,95.6,582.5z"/>
	<path id="XMLID_905_" class="st12" d="M477,293.1c-2,5.8-3.9,11.6-5.9,17.3C473,304.7,475,298.9,477,293.1z"/>
	<path id="XMLID_904_" class="st14" d="M418.8,552.6c2,0.6,4,1.1,6,1.7c-0.7,1.5-1.5,3-2.2,4.5c-1.7-1.2-3.4-2.5-5-3.7
		C417.9,554.2,418.3,553.4,418.8,552.6z"/>
	<path id="XMLID_903_" class="st7" d="M169.3,388.4c-1.8,1.7-3.2,3.5-3.7,3.3c-1.4-0.7-2.8-1.9-3.4-3.3c-0.3-0.6,1.6-3,2.3-2.9
		C165.9,385.7,167.2,387,169.3,388.4z"/>
	<path id="XMLID_902_" class="st7" d="M164.3,381.3c-1.9,1.4-3.1,2.3-4.3,3.3c-0.9-1.4-2.2-2.6-2.6-4.1c-0.1-0.5,2-2.4,2.9-2.2
		C161.5,378.5,162.6,380,164.3,381.3z"/>
	<path id="XMLID_901_" class="st3" d="M115.1,567.1c-1.9,1.2-3.3,2.6-4.1,2.4c-1.2-0.4-2.6-1.9-2.7-3.1c-0.1-0.9,1.9-2.8,2.7-2.7
		C112.2,563.9,113.3,565.4,115.1,567.1z"/>
	<path id="XMLID_900_" class="st6" d="M428,310.2c-2.9-3.1-2.7-4,1-5.2C428.6,306.7,428.3,308.4,428,310.2z"/>
	<path id="XMLID_899_" class="st14" d="M458.9,165.9c0.1,2.9,0.2,5.9,0.3,8.8C459.1,171.8,459,168.9,458.9,165.9z"/>
	<path id="XMLID_898_" class="st8" d="M146.8,389c-0.3-0.3-0.6-0.6-0.8-0.9c0.3-0.7,0.6-1.3,0.9-2c0.2-0.2,0.4-0.4,0.6-0.6
		C147.3,386.6,147,387.8,146.8,389z"/>
	<path id="XMLID_897_" class="st4" d="M383,254c-0.7,0-1.3,0-2,0C381.7,254,382.3,254,383,254z"/>
	<path id="XMLID_896_" class="st14" d="M483,187c-0.6,0-1.3,0-1.9,0c0.1-0.4,0.2-0.9,0.3-1.3C481.9,186.1,482.4,186.5,483,187z"/>
	<path id="XMLID_895_" class="st14" d="M469.7,180.4c-0.6,0.5-1.1,1.1-1.3,1.1c-0.5-0.2-0.9-0.6-1.1-1.1c-0.1-0.1,0.6-0.9,0.8-0.9
		C468.6,179.6,469,180,469.7,180.4z"/>
	<path id="XMLID_894_" class="st9" d="M410,629.9c-2.8,5.6-7.9,5.6-12.9,4.9c-4.3-0.6-8-2.6-8.8-7.5c-0.4-2.2-1.1-4.9,2.5-5.3
		C398.1,622.3,404.6,624.7,410,629.9z"/>
	<path id="XMLID_893_" class="st7" d="M410,629.9c-5.3-5.3-11.8-7.6-19.2-7.9c2.9-2.9,8.7-3.8,13.1-1.6
		C407.6,622.3,411.2,624.6,410,629.9z"/>
	<path id="XMLID_892_" class="st6" d="M296.5,250.8c4.1,0.9,8.4,1.3,12.2,2.8c9.7,3.7,19.2,7.7,28.8,11.8c2.2,1,4.1,2.7,6.1,4.7
		c-45.1-6.8-83.5,10.2-120.9,32.6c-2.5-7,1.2-12.5,4.6-17.7c3.6-5.5,8-10.3,11.7-15.7c1.2-1.8,1.5-4.3,2.2-6.5
		c0.9-0.2,2-0.1,2.8-0.5C260.4,253.8,277.8,249.2,296.5,250.8z"/>
	<path id="XMLID_891_" class="st15" d="M201.9,331.9c1.4-1.6,2.8-3.1,4.2-4.7c3.2-2.6,6.2-5.4,9.5-7.8c8.8-6.5,17.7-12.9,26.5-19.3
		c7.8-4,15.6-7.9,23.3-11.9c6.1-2,12.1-4.1,18.2-5.9c13.4-3.8,27.1-6.6,41.1-6.3c14.5,0.3,26.8-6.5,39.7-11.6c4-1.6,8-3.3,12-5
		c3.6-1.5,7.2-2.9,10.8-4.4c0.4,0.3,0.7,0.7,1.1,1c-3.8,4.2-7.7,8.4-11.5,12.5c-0.5,0.2-0.9,0.4-1.4,0.7c0.1,0.2,0.2,0.4,0.4,0.6
		c0.4-0.3,0.9-0.6,1.3-0.9c1-0.2,1.9-0.4,3.5-0.7c-0.8,1.4-1.4,2.6-2.2,4.2c1.3-0.1,2.3-0.2,3-0.2c-4.5,4.8-8.9,9.7-13.4,14.6
		c-0.6,0.3-1.2,0.6-1.9,0.9c-0.8-1-1.4-2.7-2.5-3c-3.1-0.9-6.4-1.3-9.6-1.9c-4.4-3.4-8.9-5.8-14-1.2c-0.4,0.4-1.4,0.1-2.1,0
		c-5.5-0.4-11.2-1.7-16.6-0.9c-8.5,1.3-17.1,3.1-25.1,6.2c-14.2,5.5-28.2,11.8-41.9,18.5c-9.4,4.6-18.2,10.4-27.3,15.6
		c-3.1,1.8-6.3,3.4-9.3,5.2c-3.9,2.4-7.7,4.9-11.5,7.5C203.3,335.8,202.1,334.9,201.9,331.9z"/>
	<path id="XMLID_890_" class="st16" d="M209.9,219.4c-17.9-3.6-33.5,1.2-47,13c-13.7,12-20.4,26.8-17.8,45.8
		c-5.8-12.3,0.1-33,12.5-45.5C172.2,218,195.1,211.9,209.9,219.4z"/>
	<path id="XMLID_887_" class="st13" d="M172.9,313c0.2-0.6,0.4-1.2,0.5-1.8c7.2,0.2,14.4,0.4,21.7,0.7c0.4,4.1,0.9,8.3,1.3,12.4
		c0,0.2-0.4,0.5-0.6,0.7c-3.7,3-7.4,6.1-12.7,4c-0.1-0.1-0.2-0.1-0.4-0.2c0.1,0.1,0.3,0.1,0.4,0.2c0,1.4-0.1,2.8-0.1,4.1
		c-1.6-2.1-3.2-4.1-4.8-6.2c0,0,0,0,0,0c-1.3-3.2-2.7-6.3-4-9.5c0.1-0.4,0-0.6-0.4-0.6C173.4,315.6,173.2,314.3,172.9,313z
		 M194,318.6c-3.7-0.2-6.8-0.3-9.8-0.7c-3.3-0.4-5.1,1.4-4.8,4.1c0.2,1.7,2.2,4,3.9,4.7C187.8,328.5,190,326.7,194,318.6z"/>
	<path id="XMLID_886_" class="st16" d="M296.5,197.2c21.8-22,56-15.5,68.6,0.7C341.6,182.3,319.1,181.7,296.5,197.2z"/>
	<path id="XMLID_885_" class="st15" d="M182.9,333.1c0-1.4,0.1-2.8,0.1-4.1l0,0c5.3,2.1,9-1,12.7-4c0.2-0.2,0.7-0.5,0.6-0.7
		c-0.4-4.1-0.8-8.3-1.3-12.4c2.3-0.9,4.5-1.7,6.9-2.6c-0.3,5.3-0.7,10.5-1,15.7c-4.1,4.1-8.1,8.4-12.5,12.3c-0.4,0.4-3-1.7-4.5-2.7
		c-0.4-0.5-0.7-1-1.1-1.6L182.9,333.1z"/>
	<path id="XMLID_884_" class="st16" d="M296.5,250.8c-18.7-1.6-36,3-52.5,11.4c-0.8,0.4-1.9,0.3-2.8,0.5
		c14.7-10.6,31.2-14.9,49.2-13.6C292.4,249.4,294.4,250.3,296.5,250.8z"/>
	<path id="XMLID_883_" class="st8" d="M265.4,288.2c-7.8,4-15.6,7.9-23.3,11.9c0.1-0.8,0.1-2.2,0.5-2.3
		C250.3,294.9,256.4,288.1,265.4,288.2z"/>
	<path id="XMLID_882_" class="st16" d="M367.2,198.8c0.3,0.6,0.6,1.2,0.8,1.7c-0.3,0.2-0.5,0.3-0.8,0.5c-0.3-0.5-0.6-1-1-1.5
		C366.6,199.3,366.9,199,367.2,198.8z"/>
	<path id="XMLID_881_" class="st0" d="M371.3,257.3c-0.5,0.1-1,0.3-1.5,0.4c0.1-0.4,0.3-0.7,0.4-1.1
		C370.6,256.8,370.9,257,371.3,257.3z"/>
	<path id="XMLID_880_" class="st16" d="M365.4,198.6c-0.1-0.5-0.2-1-0.3-1.5c0.4,0.2,0.7,0.5,1.1,0.7
		C365.9,198.1,365.7,198.3,365.4,198.6z"/>
	<path id="XMLID_879_" class="st16" d="M366.2,197.8c0.3,0.3,0.7,0.7,1,1c-0.3,0.2-0.6,0.5-0.9,0.7c-0.3-0.3-0.6-0.6-0.8-0.9
		C365.7,198.3,365.9,198.1,366.2,197.8z"/>
	<path id="XMLID_876_" class="st2" d="M272,611c-1.9,1.3-3.8,2.8-5.7,4c-1,0.6-2.3,0.9-3.4,1.3c-12.5-4.8-22.9-12.5-30.9-23.4
		c-0.6-0.8-1.4-1.4-2-2.1c-1.1-0.7-2.3-1.3-3.4-2c0.1-0.6,0.2-1.2,0.3-1.8c-0.3-1.3-0.6-2.7-0.9-4c0-0.7,0.1-1.4,0.1-2
		c2,0.7,4,1.3,6,2c1.2,1.5,2.5,3.1,3.7,4.6c0.7,0.8,1.4,1.6,2,2.4l0,0c0.3,0.3,0.7,0.7,1,1l-0.1,0c0,0.4-0.1,0.7-0.1,1.1
		c6.1,8.2,14.3,13.6,23.1,18.5c4,2.3,7,2.2,10.1-1C272,610.1,272,610.5,272,611z M236.7,592c-0.1-0.1-0.1-0.2-0.2-0.4
		c-0.1,0.1-0.2,0.2-0.3,0.3c0,0.1,0.1,0.2,0.2,0.4C236.6,592.2,236.7,592.1,236.7,592z"/>
	<path id="XMLID_875_" class="st8" d="M226.6,588.8c1.1,0.7,2.3,1.3,3.4,2c-3,0.7-6,1.4-9,2.2c-8.3-0.7-16.6-1.3-24.8-2.1
		c-3.3-0.3-6.6-1.2-9.9-2c-0.9-0.2-1.5-1.3-2.3-2C198.1,589.1,212.3,591,226.6,588.8z"/>
	<path id="XMLID_874_" class="st3" d="M173,589.1c1.3,0.6,2.7,1.1,4,1.7c-0.7,0.6-1.5,1.3-2.2,1.9
		C174.2,591.5,173.6,590.3,173,589.1z"/>
	<path id="XMLID_873_" class="st3" d="M181,591.9c1.6,0.1,3.3,0.2,4.9,0.3C184.3,592.1,182.7,592,181,591.9z"/>
	<path id="XMLID_872_" class="st3" d="M169.4,588.8c0.6,0,1.2,0,1.8,0.1C170.6,588.9,170,588.9,169.4,588.8z"/>
	<path id="XMLID_871_" class="st3" d="M179,590.9c0.3,0,0.7,0.1,1,0.1C179.7,591,179.3,590.9,179,590.9z"/>
	<path id="XMLID_870_" class="st17" d="M369.2,291.1c7.4-4.6,14.9-9.2,22.3-13.8c0.4-0.2,0.9-0.2,1.4-0.3c0.6,4,2.8,3.8,5.3,2
		c2.9-2.1,5.6-4.6,8.5-6.7c0.9-0.7,3-2.8,3.2,0.8c-2.5,6-5,11.9-7.5,17.9c-4.1-0.1-8.4-0.6-10.5,4.3c-0.2,0.5-0.7,1.3-1.2,1.4
		c-7.9,1.3-8.7,8.7-11.3,14.1c-1.2,2.6,0.3,6.6,0.5,9.9c-1.3,0.1-2.6,0.3-4,0.4c-9.5,0.4-10.1-0.2-8.1-9.6c0.6-3.1-0.8-4.4-3.5-4.7
		c-3.6-0.3-7.3-0.5-12.2-0.9c3.7-3.4,6.4-6,9.2-8.6c0.9-0.7,1.8-1.4,2.8-2C365.8,293.9,367.5,292.5,369.2,291.1z"/>
	<path id="XMLID_867_" class="st12" d="M369.2,291.1c-1.7,1.4-3.4,2.7-5.1,4.1c-0.5-0.5-1.1-1-1.6-1.5c-0.4,1.2-0.7,2.4-1.1,3.5
		c-2.8,2.6-5.5,5.2-9.2,8.6c4.9,0.3,8.6,0.5,12.2,0.9c2.8,0.3,4.2,1.6,3.5,4.7c-2,9.4-1.4,10,8.1,9.6c1.3-0.1,2.6-0.2,4-0.4
		c4.7,1.6,4,5.2,2.8,8.7c2.6,1.4,7.1-1.8,7.4,3.6c-0.4,3.7-0.8,7.4-1.1,11c-0.3,0.2-0.6,0.3-0.8,0.5c-1.3-3.3-2.6-6.6-4-10.2
		c-6-1.2-6-1.2-4.4-9.2c-4.4-0.5-9-0.2-13-1.7c-5.8-2.2-1.7-7.9-3.1-12.5c-2.6,0-5.3,0.4-7.8-0.1c-2.6-0.5-5-1.8-7.5-2.7
		c1.2-2.6,1.9-5.7,3.8-7.6c4.4-4.5,9.4-8.4,14.1-12.5c0.6-0.3,1.2-0.6,1.9-0.9C368.4,288.4,368.8,289.8,369.2,291.1z M365.3,291.5
		c-0.2,0-0.5,0-0.7-0.1c0.1,0.1,0.2,0.2,0.3,0.3C365.1,291.7,365.2,291.6,365.3,291.5z"/>
	<path id="XMLID_866_" class="st12" d="M421,298.9c1.1-0.5,2.3-0.9,4.3-1.7c-0.6,2.1-1,3.6-1.4,5c-2.1-0.4-4.2-0.9-6.3-1.3
		c-1.6,5.4-3.1,10.2-4.5,15.1c-2.7,0.9-5.3,1.9-8,2.8c2.8-6,5.6-12,8.4-18.1c-0.6-0.4-1.2-0.7-1.8-1.1c-1.4,1.5-2.7,3-4.2,4.6
		c-0.4-0.7-0.8-1.3-1.1-2c-4.1,2.7-6.6,7.6-11.9,8.9c3.5-4.6,6.8-8.9,10-13.2c1.4-2,2.9-4,4.3-6c1.6,1.3,3.2,2.7,4.9,4.1
		c0.1,1.8,0.3,4.1,0.5,6.5c0.3,0,0.5,0,0.8-0.1c0.7-1.8,1.4-3.7,2-5.4C418.5,297.8,419.7,298.4,421,298.9z"/>
	<path id="XMLID_865_" class="st16" d="M427.3,287c-0.5,3-1,5.9-1.4,9c0-8.5,0-16.7,0-25c0-1,0-1.9,0-2.9c0-1.3,0-2.7,0-4
		c-0.1-1-0.2-2-0.4-3.1c-0.2-1.3-0.5-2.6-0.7-3.9c-1.9-7.9-2.1-8.1-11.2-10.3c7-3.2,11.9,2.1,12.3,7.6
		C426.7,265.2,426.9,276.1,427.3,287z"/>
	<path id="XMLID_864_" class="st12" d="M402.4,291.1c2.5-6,5-11.9,7.5-17.9c3.4,3,4.5,6.2,1,9.8c-1,1-2.3,1.8-3,3
		c-2.4,3.9-4.6,8-6.8,12c-0.2,0.6-0.4,1.3-0.7,1.9c-0.4-0.3-0.8-0.7-1.3-1C400.2,296.3,401.3,293.7,402.4,291.1z"/>
	<path id="XMLID_863_" class="st13" d="M401.1,298c2.3-4,4.4-8.1,6.8-12c0.7-1.2,2-2,3-3c-0.7,3-1.4,6-2.1,9c-1.4,2-2.9,4-4.3,6
		C403.4,298,402.2,298,401.1,298z"/>
	<path id="XMLID_862_" class="st8" d="M425.9,264c0,1.3,0,2.7,0,4C423.2,266.7,423.2,265.4,425.9,264z"/>
	<path id="XMLID_861_" class="st8" d="M424.8,257c0.2,1.3,0.5,2.6,0.7,3.9C425.3,259.6,425.1,258.3,424.8,257z"/>
	<path id="XMLID_860_" class="st12" d="M381.8,604.8c-4.9,3.1-9.8,6.3-14.7,9.4c-2.3-2.1-4.7-4.2-6.6-6c-2.3,2-3.6,3.3-5.1,4.5
		c-0.1,0-1.3-1.1-1.2-1.2c0.8-1.1,1.7-2.2,2.7-3.4c-0.7-1.3-3.9-3.4,1.4-3.6c-7-3.5-13.3-1.8-16.9,3.7c-1.9,2.9-4.3,5.4-8.5,4.8
		c-3.3-0.5-6.6-0.3-9,2.8c-0.9-0.3-1.9-0.6-2.8-0.9c1.4-4.6,5.4-3.7,8.6-3.8c3.4-0.1,5.7-0.9,7.7-4.1c5.3-8.1,19.8-9.2,25.6-1.4
		c3.6,4.8,5.7,3.3,9,0.7c10.7-8.6,17.6-19.6,21.8-32.5c0.8,5.8-1.5,10.6-4.4,15.4c-0.9,1.5-4.3,4.2,0.8,5c-1.5,2.2-2.9,4.3-4.4,6.5
		C384.5,602,383.2,603.4,381.8,604.8z"/>
	<path id="XMLID_857_" class="st2" d="M419.8,592.4c5.4-3.2,10.7-3.8,15.9,0.3c2.8,3.3,3.7,6.6,0.2,10c-3,3-10.4,3.2-14.3,0.5
		C417.4,600.3,417.6,596.5,419.8,592.4z M425,593c-4.2,0.9-5.6,4.4-3.1,7.4c3.4,4.1,10.8,3,13.1-1.9c-0.8-1.4-1.2-3.7-2.4-4.1
		C430.3,593.4,427.6,593.4,425,593z"/>
	<path id="XMLID_856_" class="st5" d="M442.8,606.5c-8.8,8.7-20,7.8-24.7,0C426.1,606.5,433.9,606.5,442.8,606.5z"/>
	<path id="XMLID_855_" class="st7" d="M381.8,604.8c1.3-1.4,2.7-2.8,4-4.2c0.1,1.5,0.1,2.9,0.2,4.4c0,0,0,0,0,0c-1.3,0-2.6,0-4,0
		C382,605,381.8,604.8,381.8,604.8z"/>
	<path id="XMLID_849_" class="st17" d="M234.1,485c6.2,10.5,10.3,21.6,10,34c-0.7,2-1.4,4-2.1,5.9c-2.5,5.5-4.2,11.6-7.8,16.4
		c-5.1,7-9.3,14-10.4,22.7c-0.4,2.6-0.8,5.2-1.2,7.9c-0.4-0.8-0.9-1.6-1-1.9c-4.9,1.1-10.4,0.9-14.2,3.4c-7.3,4.6-15.4,2.9-23,4.9
		c-1.3,0.3-2.9-0.3-4.3-0.2c-5.4,0.3-10.7,0.7-16.1,1c-6-3.2-12-6.4-18-9.6c-1.3-2-2.5-4.2-4.1-5.9c-6.1-6.7-12.9-12.9-18.5-20
		c-4.3-5.5-10.5-10.2-10.6-19c1.8,0.6,3.4,0.9,4.7,1.6c2.8,1.7,5.4,3.7,8.2,5.3c1.1,0.6,2.5,0.5,3.8,0.7c-0.6-1.1-1-2.3-1.7-3.4
		c-0.6-1-1.4-1.8-2.9-3.9c4,0.4,6.6,0.7,9.1,1c0.1,0.1,0.3,0.2,0.4,0.2c-0.1-0.1-0.3-0.1-0.4-0.2c0-0.3-0.1-0.7-0.1-1
		c4.7,0,9.4,0,14.1,0c9.9,3,19.8,6,29.7,9c0.2-0.1,0.3-0.3,0.5-0.4c-1.7-1.2-3.4-2.4-5.1-3.6c0.7-1,1.3-2,2-3.1c2,1.3,2.8,0.8,3-1.6
		c0.4-7.6-5.4-10.9-10.1-15.1c-2-1.1-4-2.1-6-3.2c-0.6-1.9-1.1-3.9-1.7-5.8c0.4-0.3,1.6-1.2,2.8-2.1c1.7,0,3.3,0,5,0
		c1.4,0.2,2.8,0.4,4.2,0.6c0.5-4.1,3.7-2.7,6-2.8c2.6-0.1,5.3-0.1,7.9-0.1c8.4,0.4,8.5,0.4,7.9-8.2c-0.1-1.4-0.7-2.8-1.3-4.1
		c-2.2-4.5-4.5-9-6.8-13.5c0-1.1,0.1-2.1,0.1-3.2c2.4,1.7,4.8,3.3,7.2,5c0.4-0.3,0.7-0.7,1.1-1c-1.3-2.1-2.6-4.1-3.9-6.2
		c0.3-0.2,0.5-0.3,0.8-0.5c1.7,1.2,3.4,2.4,5.1,3.6c0.2-0.3,0.5-0.6,0.7-0.9c-2.4-3.3-4.7-6.6-7.1-9.8c0.3-0.3,0.5-0.6,0.8-0.9
		c2.9,0.6,5.7,1.1,8.6,1.7c7.6,4.6,15.3,9.3,22.9,13.9c0.4,1.7,0.8,3.4,1.3,5.2c0.6,0.6,1.2,1.3,1.8,1.9l0-0.1
		c1.7,4.5,3.5,9,5.2,13.5c-0.1,1.6-0.6,3.4-0.1,4.8c0.5,1.3,2.1,2.1,3.2,3.1c0.4,0,0.7,0,1.1,0.1c0.4,0.2,0.8,0.3,1.2,0.5
		c1.2-2.9-1.1-10-3.9-11.7l-0.1,0c-0.3-2.2-0.7-4.4-1-6.7C231.8,484,233,484.5,234.1,485z M167,564c-0.7-0.6-1.4-1.2-2.1-1.7
		c-0.2,0.3-0.4,0.7-0.6,1C165.2,563.5,166.1,563.8,167,564c3.6,2.7,7,6.2,11.1,7.8c5.8,2.4,12.2,3.4,18.3,5.1
		c-6.3-3.3-12.6-6-19-8.6C174,566.8,170.5,565.4,167,564z M223.1,550.8c0.6-0.3,1.2-0.7,1.9-1c-0.4-7.7-3.5-13.9-10-18.2
		c-0.5,0.3-1,0.5-1.5,0.8C216.7,538.5,219.9,544.6,223.1,550.8z M218.7,563.5c0.3-0.6,0.6-1.2,0.8-1.8c-2.9-1.7-4.9-5.4-9-4.4
		c-0.3,0.6-0.6,1.3-0.9,1.9C212.7,560.7,215.7,562.1,218.7,563.5z M200.6,471.7c-0.3-0.1-0.5-0.2-0.8-0.4c-0.1,0.3-0.4,0.6-0.3,0.8
		c0.1,0.2,0.5,0.3,0.8,0.4C200.4,472.3,200.5,472,200.6,471.7z"/>
	<path id="XMLID_846_" class="st10" d="M162,507c2,1.1,4,2.1,6,3.2c0.8,2.7,0.9,7,2.6,7.9c3.6,1.7,3.5,4.1,3.4,7
		c-4-1.3-8-2.6-12-3.9c-0.7-2.8-2.2-2.4-4-1c-1.3,0-2.7,0-4-0.1c-0.3-0.5-0.7-1-1-1.5c-0.3,0.5-0.7,1-1,1.5c-0.3,0-0.7,0-1,0.1
		c-3.9-2.3-6.6,1.3-9.9,2c-0.7,0-1.3,0-2,0c-0.4-0.3-0.7-0.6-1.1-0.9c-2.7,0-5.3,0-8,0c-4.8-0.1-10.1,1.1-14.4-0.5
		c-4.2-1.6-6.7-1.4-9.6,1.5c-1.4-3.6-2.5-7.4-4.1-10.9c-1-2.2-2.5-4.1-3.8-6.2c-0.7-3.6-1.5-7.2-2.2-10.8
		c0.7-12.6,1.1-25.2,2.2-37.7c0.4-4.2,2.8-8.3,7.7-9.5c0.6,1.6,1.1,3.2,2,5.5c4.6-5.3,6.9-10.2,6-16.4c-0.3-0.9-0.5-1.8-0.8-2.7
		c-2.2,0.9-4.5,1.8-6.9,2.8c-0.1-2.5-0.3-5-0.4-7.4c0,0-0.1,0-0.1,0c0.8-0.7,1.8-1.2,2.2-2c2.3-4.4,4.1-9.1,6.8-13.2
		c3.4-5.1,7.5-9.8,11.2-14.7c0.3,0,0.6,0,1,0c0.3,0,0.6,0,1,0c0.4,2.4,0.5,4.8,1.1,7.1c1.6,6,6.4,11.5,3.1,18.4
		c-0.4,0.9-0.2,2.4,0.1,3.4c1,2.8,2.4,5.4,3.5,8.2c0.9,2.1,1.4,4.5,2.5,6.5c2,3.4,5.4,3.4,7.7,0.1c1.5-2.1,2.5-2.1,3.9,0.1
		c1.7,2.6,3.5,5.5,5.9,7.4c3,2.4,6.1,5.9,10.7,1.6c2.4-2.3,7.1-0.7,9.1,2.9c-2.1,0.2-4.2-0.1-5.9,0.6c-1.2,0.5-1.7,2.4-2.5,3.7
		c0.9,0.3,1.9,0.7,2.8,1c1.1,0.6,2.3,1.2,3.3,1.9c4.2,3,8.3,6.2,12.5,9.3c2.3,4.5,4.6,9,6.8,13.5c0.6,1.3,1.2,2.7,1.3,4.1
		c0.6,8.5,0.5,8.5-7.9,8.2c-8.4-4-17.1-4.7-27.1-3.3c3.6,2.2,6.4,3.9,9.1,5.5c-1.7,0-3.3,0-5,0c-3.4,0-6.8,0-9.4,0
		c0.6,3.2,1,5.3,1.5,7.9C157.1,507,159.6,507,162,507z M126.3,406c-0.2-0.4-0.3-0.8-0.4-0.8c-0.4,0.1-0.9,0.2-1.3,0.4
		c0.2,0.3,0.4,1,0.5,1C125.5,406.5,125.9,406.2,126.3,406z"/>
	<path id="XMLID_845_" class="st15" d="M164,579.1c5.4-0.3,10.7-0.7,16.1-1c1.4-0.1,3,0.6,4.3,0.2c7.5-2,15.7-0.3,23-4.9
		c3.8-2.4,9.3-2.3,14.2-3.4c0.2,0.3,0.6,1.1,1,1.9c0.4-2.8,0.8-5.3,1.2-7.9c0.8,5.6,1.6,11.3,2.3,16.9c0,0.7-0.1,1.4-0.1,2
		c-1,0.1-2.1,0.2-3.1,0.3c-10.9,0-21.9,0-32.8,0c0,0.1-0.1,0.2-0.1,0.3c3,0.4,6,0.8,9.1,1.3c9.3,0.7,18.5,1.4,27.8,2.2
		c-0.1,0.6-0.2,1.2-0.3,1.8c-14.3,2.2-28.5,0.2-42.6-2C177.3,584.3,170.6,581.7,164,579.1z"/>
	<path id="XMLID_844_" class="st14" d="M106.1,522c2.8-2.9,5.3-3.2,9.6-1.5c4.2,1.6,9.5,0.5,14.4,0.5c1.3,1.3,2.6,2.7,3.9,4
		c0,0.3,0.1,0.7,0.1,1l0,0c-2.5-0.3-5-0.6-9.1-1c1.6,2.1,2.3,2.9,2.9,3.9c0.6,1.1,1.1,2.2,1.7,3.4c-1.3-0.2-2.8,0-3.8-0.7
		c-2.8-1.6-5.4-3.7-8.2-5.3c-1.3-0.8-2.9-1-4.7-1.6c0.1,8.8,6.3,13.6,10.6,19c5.6,7.1,12.4,13.3,18.5,20c1.6,1.8,2.7,3.9,4.1,5.9
		c-10.1-5.8-18.8-13.3-25.9-22.6c-1.9-2.4-4.2-4.6-6.3-6.9c2.8-2.3-0.2-3.6-1-5.2C110.7,530.5,108.3,526.3,106.1,522z"/>
	<path id="XMLID_843_" class="st11" d="M126,399c-3.8,4.9-7.9,9.5-11.2,14.7c-2.7,4.1-4.5,8.8-6.8,13.2c-0.4,0.8-1.5,1.4-2.2,2
		c3.5-7.2,6.9-14.4,10.4-21.6c5.8-5.7,11.1-12.1,17.5-17c3.5-2.6,8.8-2.9,13.3-4.2c-0.3,0.7-0.6,1.3-0.9,2c-7,10.7-6.4,22-2.7,33.6
		c0.6,1.9,1.7,3.6,2.5,5.4c-1.9-2.3-5.2-4.3-5.5-6.8c-1.3-9.4-2.4-18.9,1.4-28.1c0.3-0.6,0.1-1.8-0.3-2.3c-0.4-0.5-1.7-0.7-2.2-0.4
		C134.8,392.5,130.4,395.7,126,399z"/>
	<path id="XMLID_842_" class="st11" d="M105.8,428.8c0.1,2.4,0.3,4.9,0.4,7.4c2.5-1,4.7-1.9,6.9-2.8c0.3,0.9,0.5,1.8,0.8,2.7
		c-5.7,2-7.8,4.8-8,10.8c-4.9,1.2-7.3,5.3-7.7,9.5c-1.2,12.5-1.5,25.1-2.2,37.7c-3.4-17.9-1.1-35.4,4.6-52.5
		C102,437.3,104.1,433.1,105.8,428.8z"/>
	<path id="XMLID_841_" class="st11" d="M106.1,522c2.3,4.3,4.6,8.5,6.7,12.8c0.8,1.6,3.9,2.9,1,5.2c-7.7-10.6-12.7-22.4-15.7-35.1
		c1.3,2,2.8,4,3.8,6.2C103.5,514.7,104.7,518.4,106.1,522z"/>
	<path id="XMLID_840_" class="st10" d="M500.1,253.1c0,3,0,6.1,0,10.3c-3.3-1.3-6.3-1.9-8.6-3.6c-1.1-0.8-1.4-3.5-1.2-5.3
		c0.1-0.6,2.6-1.2,4.1-1.4C496,252.9,497.7,253.1,500.1,253.1z"/>
	<path id="XMLID_839_" class="st0" d="M489.9,268c-2.8,1.2-4.3,0.1-5.2-2.6c-0.6-1.8-1.3-3.6-1.9-5.4c-0.2-0.7-0.5-1.4-0.7-2.2
		c0-0.2,0-0.5,0-0.7c0.2-0.3,0.3-0.6,0.3-0.9c1.1-0.4,2.3-0.8,3.4-1.2C487.2,259.4,488.6,263.7,489.9,268z"/>
	<path id="XMLID_838_" class="st14" d="M485.9,255.1c-1.1,0.4-2.3,0.8-3.4,1.2c0.1-0.9,0.2-1.9,0.2-2.8c-0.1-1.2-0.4-2.3-0.6-3.5
		c-1,0.4-2,0.7-3.1,1.1c-0.2-0.2-0.3-0.3-0.5-0.4c0.9-2.2,1.9-4.4,2.8-6.6c0.6,0.7,1.1,1.3,1.7,2c-0.2,3.5,1.9,4.2,4.8,4
		C487.2,251.7,486.5,253.4,485.9,255.1z"/>
	<path id="XMLID_837_" class="st10" d="M487.8,250c-2.9,0.3-5.1-0.4-4.8-4c0.5-0.8,0.9-1.7,1.4-2.5c0.5-0.1,1.1-0.2,1.6-0.3
		C486.6,245.4,487.2,247.7,487.8,250z"/>
	<path id="XMLID_836_" class="st17" d="M287.8,457.6c0.7-0.2,1.4-0.5,2.1-0.7c0.4-0.3,0.8-0.6,1.2-0.9c9-1,17.9-2,26.9-2.9l0.4,0
		l0.4-0.1c4.4-0.1,9,0.5,13.3-0.4c3.9-0.9,5.8,0.2,7.7,3.3c1.5,2.5,3.5,4.7,5.2,7c5,9.7,10.1,19.4,15.1,29c1,3.7,1.9,7.5,2.9,11.2
		c0.3,0.7,0.7,1.3,1,2c0,0,0,0,0,0c2.2,7.5,4.4,14.9,6.9,22.4c0.2,0.5,2,0.4,3.1,0.6c0.6,1.6,1.3,3.1,1.9,4.7
		c-1.3,0.5-2.5,0.9-3.8,1.4c-0.4-0.1-0.8-0.2-1.2-0.3c0.4,0.1,0.8,0.3,1.2,0.4c2,1.3,4,2.6,6,4c-0.3,0.2-0.7,0.5-1,0.7
		c0.3-0.2,0.7-0.5,1-0.7c0.3,0,0.7,0,1-0.1c5.3,4.8,10.5,9.6,13,16.6c0.3,0.9,1.3,1.6,1.9,2.5c-0.1,4.9-0.2,9.9-0.3,14.8
		c-0.9-0.3-1.8-0.6-2.7-0.8c-0.8-1.7-1.9-3.2-2.4-5c-0.5-1.5-0.1-4.2-0.9-4.7c-1.9-1-4.4-1.1-6.6-1c-0.5,0-1.5,2.8-1.1,3.7
		c3.3,6.1,3.3,12.4,2.1,18.9c-0.7,0-1.3,0-2,0c-8.8,0.4-13.5-6.4-19.1-11c-1,1.1-1.9,2.1-2.8,3.1c-0.1-0.7-0.1-1.4-0.2-2
		c0.3-0.6,0.8-1.1,0.9-1.7c2.6-10.2,2-20.4,0.4-30.6c-0.6-3.7-2.1-7.3-3.2-11c-0.2-1.8-0.2-3.6-0.8-5.3c-3.1-9.5-6.3-18.9-9.5-28.4
		c-0.6-1.7-1.3-3.3-1.9-5l0,0c-0.4-4-1.2-7.8-5.9-9c-0.4-0.3-0.7-0.7-1.1-1c-4.5-4.9-8.8-10-13.4-14.8c-6.9-7.3-23-6.3-29.5,0.8
		c-0.8,0-1.6,0-2.4,0.1c-6.3-5.9-6.3-5.9-9.1-4.6c3.7,5,7.4,10.1,11,14.9c-2.9,0.7-4.9,1.1-6.7,1.8c-2,0.8-4,2.9-5.8,2.7
		c-6.4-0.8-4.9,3.3-5,6.8c0,1.1-1.2,2.2-1.8,3.3c-1.7,2.5-3.4,5-5.1,7.5c-0.7-0.9-1.4-1.7-2.1-2.6c-0.1-2.3,0.6-5-0.3-6.8
		c-5.1-9.9-4.8-24,3.5-30.8C275.9,458.7,281.9,458.1,287.8,457.6z"/>
	<path id="XMLID_835_" class="st15" d="M391,571c0.9,0.3,1.8,0.6,2.7,0.8c0.1,0.6,0.1,1.3,0.2,1.9c-4.2,12.9-11.1,24-21.8,32.5
		c-3.3,2.6-5.4,4.1-9-0.7c-5.8-7.8-20.3-6.7-25.6,1.4c-2,3.1-4.3,4-7.7,4.1c-3.2,0.1-7.2-0.8-8.6,3.8c-1.6,0.1-3.2,0.2-4.9,0.3
		c-3.5-4-8.1-1.8-12.2-2.2c-4.4-1.2-8.9-2.1-13.3-3.6c-6.4-2.2-12.6-4.5-18.9,0.3c-3.1,3.2-6.1,3.3-10.1,1
		c-8.8-4.9-17-10.4-23.1-18.5c0-0.4,0.1-0.7,0.1-1.1c0,0,0.1,0,0.1,0c-0.3-0.3-0.7-0.7-1-1c0,0,0,0,0,0c0-1.7,0.1-3.4,0.1-5.1
		c2,0,4,0,5.9,0c1.6,3.2,3.3,5.4,7.1,2.3c1.2-0.9,3.1-0.9,4.7-1.3c6.8-2,13.6-4.1,20.4-6.2l0,0.1c0.3,0.4,0.6,0.7,0.9,1.1
		c4.1,5.2,7.3,11.5,12.5,15.3c9.6,7.1,20.9,9.7,33.2,9c13.6-0.7,22.8-8,31.3-17.1c0.9-0.9,0.8-2.8,1.1-4.2c0.3-0.3,0.6-0.6,0.9-0.9
		c0.1-0.4,0.2-0.7,0.3-1.1c0.2-0.3,0.4-0.6,0.6-0.9l0,0c0.6,0.5,1.7,1.6,1.8,1.4c3.4-2.5,5.4-0.7,7.7,1.8c1.8,2,11.4,0.7,13.4-1.2
		c0.7,0,1.3,0,2,0C385,579,388,575,391,571z"/>
	<path id="XMLID_834_" class="st15" d="M374.2,472.5c-3.7,1.7-7.3,3.8-11.2,5c-1.3,0.4-3.2-1.2-4.8-1.9c-5.5-7.9-11-15.8-16.5-23.6
		c-1.1-4.2,2.5-3,4.4-3.7c1.3,0.3,2.7,0.5,4,0.8c4.4,4.7,8.6,9.4,13.2,13.9c1.2,1.1,3.2,1.4,4.8,2.1l0,0c0.7,0.7,1.3,1.3,2,2
		C371.4,468.8,372.8,470.7,374.2,472.5z"/>
	<path id="XMLID_833_" class="st13" d="M378,538c-2-1.3-4-2.6-6-4l0,0c1.3-0.5,2.5-0.9,3.8-1.4c-0.6-1.6-1.3-3.1-1.9-4.7
		c0-0.6,0-1.2,0-1.9c-0.3-0.3-0.6-0.7-0.9-1c-3-6.7-6-13.4-9-20c0,0,0,0,0,0c-0.3-0.7-0.7-1.3-1-2c-1-3.7-1.9-7.5-2.9-11.2
		c3.5,7.1,7.1,14.2,10.6,21.4c0.4,0.7,0.8,1.3,1.1,2c0,0-0.1,0.2-0.1,0.2c1.4,3.6,2.8,7.2,4.2,10.8c1.9,3.3,3.9,6.7,5.8,10
		c-0.9,0.6-1.9,1.2-2.8,1.8C378.7,538,378.3,538,378,538L378,538z"/>
	<path id="XMLID_832_" class="st11" d="M379,538c0.9-0.6,1.9-1.2,2.8-1.8c6.8,5.4,11.3,12.1,12.1,20.9c-0.7-0.8-1.6-1.5-1.9-2.5
		C389.5,547.6,384.3,542.7,379,538z"/>
	<path id="XMLID_831_" class="st12" d="M376,526.1c-1.4-3.6-2.8-7.2-4.2-10.8c0.5-0.4,1-0.8,2-1.7C374.6,518,375.3,522,376,526.1z"
		/>
	<path id="XMLID_830_" class="st12" d="M371.9,515.1c-0.4-0.7-0.8-1.3-1.1-2C371.1,513.8,371.5,514.5,371.9,515.1z"/>
	<path id="XMLID_829_" class="st12" d="M271.9,609.7c6.2-4.8,12.5-2.5,18.9-0.3c4.3,1.5,8.8,2.4,13.3,3.6c-2.1,0.6-4.4,2.1-6.3,1.7
		c-3.3-0.6-6.4-2.2-9.4-3.7c-5.5-2.7-10.9-3.1-16.3,0C272,610.5,272,610.1,271.9,609.7z"/>
	<path id="XMLID_828_" class="st9" d="M392,433c-0.8-1.1-1.5-2.2-2.4-3.5c0.3-0.1,0.8-0.4,1.4-0.6c2-0.4,4.2-0.6,6.1-1.4
		c5.7-2.3,10.9-1.7,15.6,2.4c0.8,0.7,2.1,0.7,3.2,1c0.3,1.9,1.4,5,0.7,5.4c-1.6,1.1-4.1,1.2-6.3,1.3c-2.6,0-5.2-0.4-7.8-0.7
		c-1.4-1.7-2.8-3.4-4.3-5.3c-0.9,1-1.8,2.1-2.7,3.2C394.3,434.2,393.2,433.6,392,433z"/>
	<path id="XMLID_827_" class="st5" d="M395.5,434.9c0.9-1.1,1.8-2.1,2.7-3.2c1.5,1.8,2.9,3.5,4.3,5.3c2.3,2.5,4.6,5.1,7.6,8.5
		c-4.6,0.6-8.8,1.1-13,1.6c-3.3,0.3-4.6-1.4-3.8-4.5C393.9,439.9,394.8,437.4,395.5,434.9z"/>
	<path id="XMLID_826_" class="st18" d="M415.9,430.9c-1.1-0.3-2.4-0.3-3.2-1c-4.7-4.1-9.9-4.7-15.6-2.4c-1.9,0.8-4.1,0.9-6.1,1.4
		c3.5-1.6,6.8-3.8,10.5-4.7c5.5-1.3,10.7,0.2,14.5,4.8C415.9,429.7,415.9,430.3,415.9,430.9z"/>
	<path id="XMLID_825_" class="st12" d="M378.8,441.1c0.4,0,0.8-0.1,1.1-0.1c0,2-0.5,4.2,0.1,5.9c0.8,2.2,2.2,5.1,4,5.8
		c4,1.6,5.5,4.3,6,8.2c0,0-0.2,0.1-0.2,0.1c-1.3-0.3-2.6-0.7-4-1c0.3-1.2,0.7-2.4,1.1-3.6c-2.4-1.2-4.7-2.3-7-3.4
		C375.4,449.5,377.5,445.3,378.8,441.1z"/>
	<path id="XMLID_824_" class="st12" d="M393,462c-0.3-0.3-0.7-0.7-1-1C392.3,461.3,392.7,461.7,393,462z"/>
	<path id="XMLID_817_" class="st17" d="M366.1,287.9c-4.7,4.1-9.7,8-14.1,12.5c-1.9,1.9-2.5,5-3.8,7.6c2.5,0.9,4.9,2.3,7.5,2.7
		c2.5,0.5,5.2,0.1,7.8,0.1c1.4,4.6-2.7,10.4,3.1,12.5c4,1.5,8.7,1.2,13,1.7c-1.6,8-1.6,8,4.4,9.2c1.4,3.6,2.7,6.9,4,10.2
		c0.3-0.2,0.6-0.3,0.8-0.5c0.4-3.7,0.8-7.4,1.1-11c2.1-0.7,4.4-1.1,6.3-2.1c2.6-1.4,5-3.2,7.5-4.9c0.6,0.5,1.8,1,1.8,1.5
		c0,1.6-0.4,3.2-0.6,4.8c-1.3,2.3-2.5,4.7-3.8,7c-3,3.5-6.3,6.9-8.8,10.7c-0.7,1,0.9,3.4,1.4,5.2c1.4,3.2,2.7,6.4,4.1,9.5
		c1.5,5.2,1.7,11.1,8.7,12.9c3.5,0.9,6.8,2.8,10.1,4.3c-1.4,2.6-3.1,5.6-4.7,8.5c-0.3,0.6-0.6,1.3-1.6,3.3c4-2,6.7-3.3,9.4-4.6
		c0.8-0.1,1.6-0.3,3.9-0.7c-4.5,9.5-9.2,17.6-16.8,23.9c-3.4-2.4-6.8-4.8-10.2-7.2c-0.5-1-0.8-2.6-1.6-2.9c-6.5-2.5-13-6.1-19.7-6.9
		c-10.2-1.1-20.6-0.4-31-0.1c-1.2,0-2.3,1.8-3.5,2.8c-6.8,3-13.5,6.1-20.4,8.8c-8.6,3.4-17.2,10.2-26.4,1.1c0.5-7.6-2.1-9-8.2-8.7
		c-3,0.1-5.9,1.4-8.9,2.3c-6.2,1.8-7.5,4.3-5.7,10.5c-3.4,3.3-7.3,4.2-11.9,3c-6.3-1.7-12.6-4.2-19.1-4.8
		c-11.6-1.2-22.5,2.1-31.8,9.2c-4.3,3.3-7.7,7.8-11.6,11.8c0,0.3,0,0.5-0.1,0.8c-8.8-6.6-16.4-14.1-19.4-25.5c2.3-0.6,4.2-1,6.1-1.5
		c1.8-0.6,3.8-0.9,5.3-1.9c6.7-4.9,6.9-12.9,9.1-20c1.2-0.3,3.3-0.3,3.6-0.9c1.3-3.8,4.4-2.9,7.1-3c1.7-0.1,3.5,0.4,4.9-0.2
		c1.6-0.7,2.8-2.4,4.2-3.6c-3.1-1.6-0.3-3.2,0.4-3.9c3.9-3.7,7.5-6.8,9.3-12.8c1.9-6.1,7.7-11.2,12.5-16.1
		c8.8-8.9,14.5-20.6,26.2-27c8.8-4.8,17.1-10.5,26.1-15.1c12.9-6.6,27.1-9.1,40.1-15.1c1.1-0.5,2.5-0.5,3.8-0.5
		c4.8,0.1,9.6,0.4,14.4,0.3c1.2,0,2.3-1.2,3.4-1.9c3.2,0.6,6.5,1,9.6,1.9C364.6,285.2,365.3,286.8,366.1,287.9z M247.5,392.1
		c-1.1-0.9-2.2-1.7-3.3-2.6c-0.2-0.3-0.5-0.5-0.7-0.8c-3.6-2.2-7.2-4.5-11-6.4c-0.8-0.4-2.4,0.9-3.6,1.4c-1.9,1.8-7.3,0.8-5,6.1
		c-2.7-0.4-5.5-0.9-8.2-1.3c-0.1,0.2-0.2,0.5-0.4,0.7c1.8,1.3,3.5,2.7,5.2,3.9c0,2.4,0,4.8,0,7.1c0.4,0.1,0.8,0.2,1.2,0.3
		c0.4-1.2,0.8-2.4,1.2-3.6c4-1.3,7.9-2.6,11.9-4c2.4,1.3,4.8,2.7,7.1,4c0.5,3.4,4.7,6.6,7.8,5.8c0.8-0.2,1.9-1,2-1.7
		C252.3,397.3,252.2,393.6,247.5,392.1z M352,378.5c3.5-3.6-1.9-5.1-1.9-7.4c1.2-2.5,2.2-4.7,3.6-7.6c-2.7,0.3-4.1,0.5-5.5,0.7
		c-0.8-1.5-1.6-3.1-2.5-4.6c-1.5-2.6-4.4-2.8-6.5-0.4l-0.1,0c-0.3,1-0.6,2.1-0.9,3.1c-0.4,0.9-0.8,1.8-1.3,2.8c-3-0.4-5.6-0.9-7.3,3
		c-1.2,2.6-4.7,4.1-6.6,6.5c-0.7,0.9,0.1,3,0.2,4.6c0,1.5-0.3,3.1,0.1,4.5c0.8,2.6,1,6.2,5.5,4.8c0.8-0.7,2.1-1.3,2.4-2.3
		c1.8-5.5,8.6-10.8,15.1-9.1C348.1,377.6,350.1,378,352,378.5z M383.2,369c0.5,0,1.1,0,1.6,0c0.7-1.1,1.4-2.3,2.2-3.5
		c2.1,1.5,4.1,3,6.2,4.6c2.1-4.8-0.9-10.9-7.2-14.9c-0.1,2.7-0.3,5-0.4,7.4c-1.5-0.4-2.8-0.8-5.3-1.4
		C381.5,364.4,382.3,366.7,383.2,369z M185.6,406.3c-1.6,1-3.2,1.5-3.2,2.1c0.1,2.4,0.4,4.8,1.1,7.1c0.2,0.7,1.9,1.4,2.8,1.3
		c0.6-0.1,1.3-1.5,1.5-2.4c0.2-1.5,0.3-3.2,0-4.7C187.5,408.5,186.5,407.6,185.6,406.3z M355.3,349c-2.2,1.4-4.1,2.5-5.7,3.8
		c-0.6,0.5-1.4,1.9-1.2,2.3c0.5,0.8,1.6,1.7,2.6,1.8C354.2,357.4,356.1,354.1,355.3,349z"/>
	<path id="XMLID_814_" class="st10" d="M197,431.9c0-0.3,0.1-0.5,0.1-0.8c3.5-2.7,6.8-5.6,10.4-8.2c9.8-7.1,20.3-11.9,32.8-10.1
		c5.1,0.8,10,2.5,15,3.2c5.7,0.8,11.8,3.5,16.7-2.1c2.4,0.9,4.8,2.6,7.2,2.6c2.9,0,3.6,1.4,4.5,3.5c1.2,2.8-0.3,4.1-2.4,5
		c-3.1,1.4-6.2,2.5-9.6,3.8c3.1,4,6.4,2.9,9.1,0.9c3.9-3,7.8-3.8,12.4-2c1.6,0.6,3.6,0.7,5.4,0.7c4.8-0.1,9.2-3.6,10.7-9.1
		c-6,4.8-12.3,6.1-18.9,3.7c-1.6-0.6-3-2.8-3.5-4.6c-0.3-1.1,1.1-2.9,2-4.1c1.6-2.2,3.5-4.3,5.3-6.4c9.2,9.1,17.8,2.3,26.4-1.1
		c6.9-2.7,13.6-5.9,20.4-8.8c6-0.7,12.1-1.7,18.1-2c12.1-0.4,23.5,2.8,34.7,7.1c0.4,0.3,0.8,0.6,1.2,0.9c0.6,0.3,1.3,0.7,1.9,1
		c3.4,2.4,6.8,4.8,10.2,7.2c-7.5,5.4-14.5,11.5-22.5,16.1c-15.7,9-32.8,15.1-50.6,18.7c-3.8,0-7.7-0.4-11.4,0.3
		c-2.4,0.5-5.3,2-4.7,5.7c-9,1-17.9,2-26.9,2.9c-1.3-0.7-2.5-1.9-3.8-2c-4.8-0.2-9.5,0-14.3,0.1c-3.6-0.2-7.3-0.4-10.9-0.7
		c-0.7,0-1.4-0.1-2.1-0.1c-9.3-1.4-18.7-2.8-28-4.3c-2.1-0.9-4.1-1.8-6.2-2.7c1.8-0.1,3.6-0.3,5.3-0.2c2.1,0.1,4.1,0.6,7.4,1.1
		c-1.8-2-2.4-2.7-3.5-3.9c1.8-0.2,3.1,0,4.1-0.4c1-0.4,1.8-1.3,2.7-2.1c-0.8-0.6-1.6-1.7-2.5-1.8c-6.9-0.8-13.9-1.5-20.9-2.1
		c-2.8-0.2-6.1,1-7.2-3.3c-0.1-0.3-2-0.2-3.3-0.3c0.7,2.5,1.2,4.2,1.7,5.9C205.5,436.9,201.2,434.4,197,431.9z M266.1,451.4
		c0.1-0.9,0.2-1.8,0.3-2.7c-8-0.8-16-1.6-24-2.4c-0.1,0.7-0.2,1.4-0.2,2.2C250.2,449.4,258.2,450.4,266.1,451.4z"/>
	<path id="XMLID_813_" class="st15" d="M195,336.9c1-0.7,1.9-1.3,2.9-2c0,0.7,0.1,1.4,0.1,2c-0.5,0.3-1,0.6-1.5,1
		c0.2,0.2,0.4,0.4,0.6,0.6c0.3-0.5,0.7-1,1-1.5c0.7,0.5,2,1,2.1,1.7c0.8,3.9,1.3,7.8,1.9,11.7c-1.2,0.6-2.4,1.2-2.6,1.3
		c-0.5,3.3-0.9,5.7-1.2,8.1c-0.7,1.7-1.5,3.4-2.2,5.2c-0.4,0-0.9,0.1-1.3,0.1c-1-1.3-2.1-2.5-3-3.8c-4.5-6.5-6.1-7.5-14-8.6
		c-3-5,2.6-5.2,4.3-7.6c3.6-2,7.2-4.1,10.8-6.1C193.6,338.2,194.3,337.5,195,336.9z"/>
	<path id="XMLID_812_" class="st14" d="M209.7,439.4c-0.5-1.7-1-3.4-1.7-5.9c1.4,0.1,3.3,0,3.3,0.3c1,4.3,4.4,3,7.2,3.3
		c7,0.6,13.9,1.3,20.9,2.1c0.9,0.1,1.6,1.2,2.5,1.8c-0.9,0.7-1.7,1.7-2.7,2.1c-1,0.4-2.2,0.3-4.1,0.4c1,1.2,1.7,1.9,3.5,3.9
		c-3.3-0.5-5.3-1-7.4-1.1c-1.8-0.1-3.5,0.1-5.3,0.2c-0.6-0.1-1.2-0.3-1.8-0.4c-1.4-3.9-7.8-6.9-14.2-6.5L209.7,439.4z"/>
	<path id="XMLID_811_" class="st13" d="M194.8,365.1c0.4,0,0.9-0.1,1.3-0.1c0.7,1.3,1.8,2.6,1.9,3.9c0.2,4.7,0.1,9.4,0.1,14.2
		c-2.2,7-2.3,15.1-9.1,20c-1.4,1.1-3.5,1.3-5.3,1.9c9.6-5.9,11.5-15.7,12.3-25.7C196.3,374.6,199.1,369.4,194.8,365.1z"/>
	<path id="XMLID_810_" class="st10" d="M209.8,439.4c6.4-0.4,12.8,2.6,14.2,6.5C219.3,443.7,214.5,441.5,209.8,439.4z"/>
	<path id="XMLID_809_" class="st17" d="M380,453c2.3,1.1,4.6,2.2,7,3.4c-0.4,1.3-0.7,2.4-1.1,3.6c-3.8,1.4-7.6,2.9-11,4.1
		c0,2.5,0,5.3,0,8c-0.2,0.2-0.5,0.3-0.8,0.4c-1.4-1.8-2.8-3.7-4.2-5.5c-0.7-0.7-1.3-1.3-2-2c0,0,0,0,0,0c-2-4-4.5-7.8-5.8-12.1
		c-1.8-6-3.2-7-8.8-4.5c-1,0.4-2.2,0.4-3.3,0.6c-1.3-0.3-2.7-0.5-4-0.8c3.6-1.1,7.1-2.2,10.7-3.3c1.7-0.7,3.4-1.4,5.1-2.1
		c0,0,0,0.1,0,0.1c1.9-0.2,3.9-0.5,5.8-0.6c2.3-0.2,4.9-0.9,6.8-0.1c1,0.4,0.9,3.7,1,5.7C375.6,450.9,375.9,453.6,380,453z"/>
	<path id="XMLID_808_" class="st13" d="M380,453c-4.1,0.6-4.4-2.1-4.5-5.1c-0.1-2,0-5.3-1-5.7c-1.9-0.8-4.5-0.1-6.8,0.1
		c-2,0.1-3.9,0.4-5.8,0.6c4.4-1.6,8.8-3.3,13.2-4.9c1,0.9,2,1.9,3,2.8c0.3,0.2,0.5,0.3,0.8,0.4C377.5,445.3,375.4,449.5,380,453z"/>
	<path id="XMLID_807_" class="st12" d="M420,389.1c-2.7,1.3-5.4,2.6-9.4,4.6c1-2.1,1.3-2.7,1.6-3.3c1.9-1.8,3.9-3.6,5.8-5.5
		c1.3,0.7,2.7,1.4,4,2.1C421.3,387.7,420.7,388.4,420,389.1z"/>
	<path id="XMLID_806_" class="st11" d="M318,453c-0.6-3.7,2.2-5.2,4.7-5.7c3.7-0.7,7.6-0.2,11.4-0.3c-3.5,0.9-7,1.7-10.4,2.9
		c-1.7,0.6-3.2,2-4.8,3c0,0-0.4,0.1-0.4,0.1L318,453z"/>
	<path id="XMLID_805_" class="st12" d="M378,440.7c-1-0.9-2-1.9-3-2.8C377.1,436.4,377.4,436.6,378,440.7z"/>
	<path id="XMLID_804_" class="st13" d="M361.9,442.8c-1.7,0.7-3.4,1.4-5.1,2.1C358.4,444.2,360.1,443.5,361.9,442.8z"/>
	<path id="XMLID_803_" class="st8" d="M226.1,581c-0.8-5.6-1.6-11.3-2.3-16.9c1.1-8.6,5.3-15.7,10.4-22.7c3.5-4.8,5.2-10.9,7.8-16.4
		c0,3.2,0,6.5,0,9.7c0.3,0.1,0.7,0.2,1,0.3c1.7-4.9,3.3-9.8,5-14.7c0.4-1.2,1.4-2.2,2.1-3.3c-1.7,6.6-3.4,13.3-5.1,19.9
		c-1.7,2.7-3.3,5.5-5,8.2c-0.4,0.6-0.7,1.2-1.1,1.8l0.1-0.1c-5.4,2.1-7.1,6.9-8.6,11.7c-2.6,8.3-1.4,16.4,1.8,24.3
		C230.1,582.3,228.1,581.7,226.1,581z"/>
	<path id="XMLID_802_" class="st19" d="M254,504c0.6-3.6,1.2-7.2,2-10.7c0.2-0.8,1.3-1.3,2-2c0.2,0.6,0.3,1.2,0.6,1.8
		c3.4,7.8,10,12.7,16.5,17.6c-1.3,2.8-2.7,5.5-4,8.3c-6.5,2.3-11.3-2.7-17-4C254,511.3,254,507.6,254,504z"/>
	<path id="XMLID_801_" class="st12" d="M275,510.7c-6.5-4.9-13.1-9.8-16.5-17.6c-0.3-0.6-0.4-1.2-0.6-1.8c0.1-3.1,0.1-6.2,0.2-9.4
		c2.9,5,5.8,10,8.7,15c0.7,0.9,1.4,1.7,2.1,2.6c1.8,2.4,3.3,6.2,6.9,1.8c3.9,1.9,7.6,4,7.1,9.5c3.6,0.2,7.2,0.4,10.8,0.6
		c-2.9,0.5-5.8,1.1-8.7,1.6c-0.7,0.1-1.4,0.1-2,0.2c-0.3-0.1-0.5-0.1-0.8,0C279.7,512.4,277.4,511.5,275,510.7z"/>
	<path id="XMLID_800_" class="st11" d="M266.8,496.9c-2.9-5-5.8-10-8.7-15c0-6.8,0.2-13.7,4.1-19.7c0.9-1.4,2.5-2.4,3.8-3.5
		c1.4,0.2,2.7,0.4,4.1,0.5c-8.4,6.8-8.7,20.9-3.5,30.8C267.4,491.9,266.7,494.6,266.8,496.9z"/>
	<path id="XMLID_799_" class="st13" d="M254,504c0,3.7,0,7.3,0,11c-0.6,1.4-1.3,2.7-1.9,4.1c-1.4,5.6-2.7,11.3-4.1,16.9
		c-1,0.3-2,0.6-3,1c1.7-6.6,3.4-13.3,5.1-19.9C251.4,512.7,252.7,508.3,254,504z"/>
	<path id="XMLID_798_" class="st12" d="M270,459.2c-1.4-0.2-2.7-0.4-4.1-0.5c-0.1-0.6-0.3-1.1-0.4-1.7c7.4,0.2,14.8,0.4,22.2,0.6
		C281.9,458.1,275.9,458.7,270,459.2z"/>
	<path id="XMLID_797_" class="st8" d="M273,454c4.8-0.1,9.5-0.3,14.3-0.1c1.3,0.1,2.6,1.3,3.8,2c-0.4,0.3-0.8,0.6-1.2,0.9
		c-1.5-0.6-3-1.7-4.5-1.8c-7-0.2-13.9,0-20.9-0.2c-1.5,0-3-1.1-4.6-1.7c0.7,0,1.4,0.1,2.1,0.1C265.7,453.6,269.4,453.8,273,454z"/>
	<path id="XMLID_796_" class="st15" d="M394,355.2c-0.5-1.8-2.1-4.2-1.4-5.2c2.6-3.8,5.8-7.2,8.8-10.7c0.1,0.3,0.3,0.7,0.4,1
		c0.1-0.1,0.3-0.2,0.3-0.3c2.9-5.8,5.9-11.5,8.8-17.3c0.7-2.2,1.3-4.4,2-6.6c1.5-4.9,2.9-9.8,4.5-15.1c2.1,0.4,4.2,0.9,6.3,1.3
		c-2.3,21.5-10.9,40.4-24.2,58.3c-1.6-2.4-2.7-4.1-4-5.7C395.5,354.7,394.6,355.1,394,355.2z"/>
	<path id="XMLID_795_" class="st6" d="M323.9,615.8c2.3-3,5.7-3.2,9-2.8c4.2,0.6,6.6-2,8.5-4.8c3.6-5.5,9.9-7.2,16.9-3.7
		c-5.3,0.2-2.1,2.3-1.4,3.6c-1.1,1.3-2,2.3-2.7,3.4c-0.1,0.1,1.2,1.2,1.2,1.2c1.5-1.2,2.8-2.5,5.1-4.5c2,1.8,4.3,3.9,6.6,6
		c-3.5,10.1-11.7,12.7-21.1,13.3c-2-0.2-4-0.2-5.9-0.5c-4.3-0.5-7.8-1.3-9.2-6.6C330.3,618.4,326.4,617.3,323.9,615.8z"/>
	<path id="XMLID_794_" class="st3" d="M382,605c1.3,0,2.6,0,4,0c-0.7,0.6-1.4,1.5-2.2,1.8C383.4,606.9,382.6,605.7,382,605z"/>
	<path id="XMLID_793_" class="st12" d="M441,409c2.3-7,4.7-14,7-21c0,0,0,0,0,0c0.7-2.3,1.3-4.7,2-7c1.4-4.7,2.6-9.4,4.1-14.1
		c0.3-0.9,1.8-1.3,2.8-2c0.3,1.3,0.6,2.5,0.9,3.8c-1.3,4.7-2.5,9.5-3.9,14.2c-3.6,13-7.3,26-11,39.3c-4.2,0-5.8-1.4-4.1-5.6
		C439.9,414.1,440.3,411.5,441,409z"/>
	<path id="XMLID_792_" class="st12" d="M457,364.1c-0.4-0.7-0.7-1.4-1.1-2C456.2,362.7,456.6,363.4,457,364.1z"/>
	<path id="XMLID_791_" class="st14" d="M489,208.3c-0.6-2-1-3.3-1.8-5.9c2.8,1,4.7,1.6,6.7,2.3c-0.1,0.5-0.1,1-0.2,1.5
		C492.3,206.8,490.9,207.4,489,208.3z"/>
	<path id="XMLID_790_" class="st14" d="M126,399c4.4-3.2,8.7-6.5,13.2-9.6c0.4-0.3,1.8,0,2.2,0.4c0.4,0.5,0.6,1.6,0.3,2.3
		c-3.8,9.2-2.7,18.7-1.4,28.1c0.3,2.5,3.6,4.6,5.5,6.8c0.2,0.1,0.3,0.3,0.3,0.6c1,2.5,1.2,5.7,3,7.3c8.2,7.3,17.6,12.2,28.9,12.3
		c1.4,0.7,2.7,1.3,4.1,2c6.5,2.8,13.1,5.6,19.6,8.4c-0.1,0.4-0.2,0.8-0.3,1.2c-0.8,0.1-1.5,0.2-2.3,0.4c-2.9-0.6-5.7-1.1-8.6-1.7
		c-0.3,0.3-0.5,0.6-0.8,0.9c2.4,3.3,4.7,6.6,7.1,9.8c-0.2,0.3-0.5,0.6-0.7,0.9c-1.7-1.2-3.4-2.4-5.1-3.6c-0.3,0.2-0.5,0.3-0.8,0.5
		c1.3,2.1,2.6,4.1,3.9,6.2c-0.4,0.3-0.7,0.7-1.1,1c-2.4-1.7-4.8-3.3-7.2-5c-4.5-3.1-9.1-6.2-13.7-9.2c-0.4-0.2-1.5,0.7-2.3,1.1
		c-0.9-0.3-1.9-0.7-2.8-1c0.8-1.3,1.4-3.2,2.5-3.7c1.7-0.7,3.8-0.4,5.9-0.6c-2-3.6-6.6-5.3-9.1-2.9c-4.5,4.3-7.7,0.8-10.7-1.6
		c-2.4-1.9-4.1-4.8-5.9-7.4c-1.4-2.2-2.5-2.2-3.9-0.1c-2.3,3.3-5.6,3.3-7.7-0.1c-1.2-2-1.6-4.3-2.5-6.5c-1.1-2.7-2.5-5.4-3.5-8.2
		c-0.4-1-0.6-2.5-0.1-3.4c3.3-6.9-1.5-12.4-3.1-18.4c-0.6-2.3-0.8-4.7-1.1-7.1c-0.3,0-0.6,0-1,0C126.7,399,126.4,399,126,399z"/>
	<path id="XMLID_789_" class="st11" d="M199.1,459c0.8-0.1,1.5-0.2,2.3-0.4c0.1-0.4,0.2-0.8,0.3-1.2c-6.5-2.8-13.1-5.6-19.6-8.4
		c0.8-0.1,1.7-0.5,2.4-0.3c17.7,4.9,33.4,13,44.7,28.1c-2.4-1.3-4.8-2.6-7.2-3.9C214.4,468.3,206.8,463.7,199.1,459z"/>
	<path id="XMLID_788_" class="st11" d="M178,447.1c-11.3-0.1-20.8-4.9-28.9-12.3c-1.8-1.6-2-4.8-3-7.3c3.9,3.5,7.9,7,11.8,10.6
		c0,0,0-0.1,0-0.1c0.4,0.3,0.7,0.5,1.1,0.8c0.1,0.2,0.3,0.3,0.6,0.3c1.5,0.7,2.9,1.4,4.4,2.1C168.7,443.2,173.3,445.1,178,447.1z"/>
	<path id="XMLID_787_" class="st13" d="M222,473c2.4,1.3,4.8,2.6,7.2,3.9c1.6,2.4,3.2,4.7,4.9,7.1c-0.1,0.3-0.1,0.7,0,1
		c-1.1-0.5-2.3-0.9-3.5-1.4c0.4,2.4,0.7,4.5,1,6.7c-2.2-3.4-4.4-6.8-6.6-10.3c0,0,0,0.1,0,0.1c-0.6-0.6-1.2-1.3-1.8-1.9
		C222.8,476.4,222.4,474.7,222,473z"/>
	<path id="XMLID_786_" class="st12" d="M164,441.2c-1.5-0.7-2.9-1.4-4.4-2.1C161,439.8,162.5,440.5,164,441.2z"/>
	<path id="XMLID_785_" class="st12" d="M159,438.8c-0.4-0.3-0.7-0.5-1.1-0.8C158.3,438.3,158.6,438.6,159,438.8z"/>
	<path id="XMLID_784_" class="st19" d="M198,383c0-4.7,0.1-9.4-0.1-14.2c-0.1-1.3-1.2-2.6-1.9-3.9c0.7-1.7,1.5-3.4,2.2-5.2
		c1.3,0.4,3.7,1.3,3.9,1c2.2-3.9,4-8.1,6.3-12.7c-2.7,1-4.5,1.7-6.3,2.3c-0.6-3.9-1.1-7.8-1.9-11.7c-0.1-0.7-1.4-1.1-2.1-1.7
		l-0.1-0.1c0-0.7-0.1-1.4-0.1-2c1.3-1,2.7-2,4-3c0.2,3,1.4,3.9,4.2,2.1c3.8-2.6,7.6-5.1,11.5-7.5c3-1.9,6.2-3.5,9.3-5.2
		c9.1-5.2,17.9-11.1,27.3-15.6c13.7-6.7,27.7-12.9,41.9-18.5c8-3.1,16.6-4.9,25.1-6.2c5.4-0.8,11,0.5,16.6,0.9c0.7,0,1.7,0.3,2.1,0
		c5.1-4.6,9.6-2.2,14,1.2c-1.1,0.7-2.3,1.9-3.4,1.9c-4.8,0.1-9.6-0.2-14.4-0.3c-1.3,0-2.7,0-3.8,0.5c-12.9,6.1-27.1,8.6-40.1,15.1
		c-9.1,4.6-17.3,10.3-26.1,15.1c-11.7,6.3-17.4,18.1-26.2,27c-4.8,4.9-10.6,10-12.5,16.1c-1.9,6-5.4,9.1-9.3,12.8
		c-0.7,0.7-3.5,2.3-0.4,3.9c-1.4,1.2-2.6,2.9-4.2,3.6c-1.4,0.6-3.3,0.2-4.9,0.2c-2.7,0.1-5.8-0.8-7.1,3
		C201.3,382.7,199.2,382.7,198,383z"/>
	<path id="XMLID_783_" class="st8" d="M174.1,317.5c1.3,3.2,2.7,6.3,4,9.5C173.6,325.1,174,321.2,174.1,317.5z"/>
	<path id="XMLID_782_" class="st8" d="M178.1,326.9c1.6,2.1,3.2,4.1,4.8,6.2c0,0,0-0.1,0-0.1c0,0.4,0.1,0.9,0.1,1.3
		C179.4,333.2,178,330.5,178.1,326.9z"/>
	<path id="XMLID_781_" class="st19" d="M195,336.9c-0.7,0.7-1.4,1.3-2.1,2C193.6,338.2,194.3,337.5,195,336.9z"/>
	<path id="XMLID_780_" class="st8" d="M172.9,313c0.3,1.3,0.5,2.5,0.8,3.8C173.4,315.6,173.2,314.3,172.9,313z"/>
	<path id="XMLID_779_" class="st13" d="M183,334.3c0-0.4-0.1-0.9-0.1-1.3c0.4,0.5,0.7,1,1.1,1.6C183.7,334.5,183.3,334.4,183,334.3z
		"/>
	<path id="XMLID_778_" class="st13" d="M375,472.1c0-2.7,0-5.5,0-8c3.3-1.3,7.1-2.7,11-4.1c1.3,0.3,2.6,0.7,4,1
		c-1.8,2.4-3.1,5.5-5.4,7.1C381.8,470.1,378.3,470.8,375,472.1z"/>
	<path id="XMLID_777_" class="st2" d="M450,381c-0.7,2.3-1.3,4.7-2,7C448.7,385.7,449.3,383.3,450,381z"/>
	<path id="XMLID_776_" class="st12" d="M417.9,385c0.9-1.5,1.8-3.1,2.8-4.9c-1.1-0.1-1.9-0.2-2.7-0.2c0.8-0.3,1.6-0.7,2.4-1
		c0.4,1.3,1.6,3,1.2,3.8C421.1,383.8,419.2,384.2,417.9,385z"/>
	<path id="XMLID_775_" class="st14" d="M482.1,257.2c0,0.2,0,0.5,0,0.7c-2.3,0-4.5,0-7.2,0c1.3-2.6,2.4-5,3.5-7.3
		c0.2,0.1,0.4,0.3,0.5,0.4C478,254.1,476.4,257.5,482.1,257.2z"/>
	<path id="XMLID_774_" class="st0" d="M539.1,539.7c0.1-3.4,3.2-6.6,6.4-6.2c3.9,0.4,5.9,2.8,6,6.6c0.1,3.2-3.3,6.5-6.4,6.4
		C542.1,546.5,539,542.9,539.1,539.7z"/>
	<path id="XMLID_773_" class="st0" d="M443.9,455.9c1.9,2.8,4,4.5,3.8,5.9c-0.2,1.5-2.4,2.8-3.8,4.2c-1.3-1.4-3.5-2.7-3.6-4.1
		C440.1,460.3,442.1,458.7,443.9,455.9z"/>
	<path id="XMLID_772_" class="st6" d="M377.1,269.1c-0.4,0.3-0.9,0.6-1.3,0.9c-0.1-0.2-0.2-0.4-0.4-0.6c0.5-0.2,0.9-0.4,1.4-0.7
		C376.9,268.8,377,269,377.1,269.1z"/>
	<path id="XMLID_771_" class="st18" d="M194,318.6c-3.9,8.1-6.2,9.8-10.7,8.1c-1.7-0.7-3.7-2.9-3.9-4.7c-0.3-2.6,1.5-4.5,4.8-4.1
		C187.2,318.3,190.2,318.4,194,318.6z"/>
	<path id="XMLID_770_" class="st15" d="M183,329c-0.1-0.1-0.3-0.1-0.4-0.2C182.7,328.9,182.9,328.9,183,329C183,329,183,329,183,329
		z"/>
	<path id="XMLID_769_" class="st17" d="M245,536.9c1-0.3,2-0.6,3-1c0.1,0.6,0.1,1.3,0.3,2.6c1.4-4.1,2.8-7.5,3.5-11
		c0.6-2.7,0.2-5.7,0.3-8.5c0.6-1.4,1.3-2.7,1.9-4.1c5.7,1.3,10.5,6.3,17,4c-0.9,7.3-1.9,14.7-2.8,22c0,5,0,10,0,15
		c0.3,0.3,0.5,0.6,0.8,1c1.7,6,3.3,12,5,18c-2.3-1.6-4.7-3.3-7-4.9c-2.6,3.5-4.6,7.1-7.5,9.6c-1.6,1.4-4.9,1.2-7.4,1.1
		c-0.8-0.1-1.6-2.3-2.1-3.6c-0.5-1.3-0.7-2.7-0.9-4c-1.9,2.3-3.4,4.1-4.9,5.9c-1-5.9-2-11.8-3-17.1c-2.4,6-1,12.6,0.7,19.1
		c-2.9-0.3-4,1.2-3.9,3.9c0,1.7-0.1,3.4-0.1,5.1c-0.7-0.8-1.4-1.6-2-2.4c0-0.5,0.1-1,0-1.5c-2.6-7.9-3.9-16.1-1.9-24.3
		c1.3-5.1,3.3-10,5-14.9c0,0-0.1,0.1-0.1,0.1c0.4-0.6,0.7-1.2,1.1-1.8C241.7,542.4,243.3,539.7,245,536.9z"/>
	<path id="XMLID_768_" class="st11" d="M239,546.9c-1.7,5-3.7,9.9-5,14.9c-2,8.2-0.7,16.3,1.9,24.3c0.1,0.4,0,1,0,1.5
		c-1.3-1.5-2.5-3.1-3.7-4.6c-3.2-7.9-4.4-16.1-1.8-24.3C231.9,553.8,233.6,549,239,546.9z"/>
	<path id="XMLID_767_" class="st8" d="M226.9,587c-9.3-0.7-18.5-1.4-27.8-2.2c1.9-0.3,3.8-0.7,5.7-0.8c6-0.3,12.1-0.5,18.1-0.7
		c1-0.1,2.1-0.2,3.1-0.3C226.3,584.4,226.6,585.7,226.9,587z"/>
	<path id="XMLID_766_" class="st8" d="M236.7,592c-0.1,0.1-0.2,0.2-0.3,0.3c-0.1-0.1-0.2-0.3-0.2-0.4c0-0.1,0.2-0.2,0.3-0.3
		C236.6,591.8,236.7,591.9,236.7,592z"/>
	<path id="XMLID_765_" class="st17" d="M237.9,590c0.3,0.3,0.7,0.7,1,1C238.6,590.7,238.3,590.4,237.9,590z"/>
	<path id="XMLID_764_" class="st17" d="M238.9,591c0,0.4-0.1,0.7-0.1,1.1C238.8,591.8,238.9,591.4,238.9,591z"/>
	<path id="XMLID_763_" class="st18" d="M404,326c-2.5,1.6-4.9,3.5-7.5,4.9c-1.9,1-4.2,1.4-6.3,2.1c-0.3-5.4-4.8-2.2-7.4-3.6
		c1.1-3.5,1.8-7.1-2.8-8.7c-0.3-3.3-1.8-7.3-0.5-9.9c2.6-5.4,3.4-12.8,11.3-14.1c0.5-0.1,1-0.8,1.2-1.4c2.1-4.9,6.4-4.4,10.5-4.3
		c-1.1,2.6-2.2,5.2-3.2,7.9c0.4,0.3,0.8,0.7,1.3,1c0.2-0.6,0.4-1.3,0.7-1.9c1.2,0,2.3,0,3.5,0.1c-3.3,4.3-6.5,8.6-10,13.2
		c5.4-1.2,7.8-6.2,11.9-8.9c0.4,0.7,0.7,1.3,1.1,2c1.4-1.6,2.8-3.1,4.2-4.6c0.6,0.4,1.2,0.7,1.8,1.1c-2.8,6-5.6,12-8.4,18.1
		c-1.9,2.4-3.9,4.8-6,7.4C401,326.2,402.5,326.1,404,326z"/>
	<path id="XMLID_762_" class="st6" d="M361.3,297.3c0.4-1.2,0.7-2.4,1.1-3.5c0.5,0.5,1.1,1,1.6,1.5
		C363.1,295.9,362.2,296.6,361.3,297.3z"/>
	<path id="XMLID_761_" class="st6" d="M365.3,291.5c-0.1,0.1-0.3,0.2-0.4,0.2c-0.1,0-0.2-0.2-0.3-0.3
		C364.9,291.5,365.1,291.5,365.3,291.5z"/>
	<path id="XMLID_760_" class="st13" d="M404,326c-1.5,0.1-3,0.2-4.9,0.3c2.1-2.6,4-5,6-7.4c2.7-0.9,5.3-1.9,8-2.8
		c-0.7,2.2-1.3,4.4-2,6.6c-1.9,3.2-3.9,6.4-5.8,9.6c0.2-1.6,0.6-3.2,0.6-4.8C405.8,327,404.6,326.5,404,326z"/>
	<path id="XMLID_759_" class="st9" d="M435,598.5c-2.3,4.9-9.7,6-13.1,1.9c-2.5-3-1.1-6.5,3.1-7.4c0.7,0.7,1.3,1.6,2.1,2
		C429.7,596.3,432.4,597.4,435,598.5z"/>
	<path id="XMLID_758_" class="st7" d="M435,598.5c-2.7-1.1-5.4-2.2-8-3.4c-0.8-0.4-1.4-1.3-2.1-2c2.6,0.4,5.3,0.4,7.7,1.4
		C433.8,594.8,434.3,597.1,435,598.5z"/>
	<path id="XMLID_757_" class="st14" d="M141,522c3.3-0.7,6-4.3,9.9-2c0.8,0.7,1.5,1.6,2.4,1.9c6.6,2.7,13.2,5.4,19.7,8
		c1.7,1.2,3.4,2.4,5.1,3.6c-0.2,0.1-0.3,0.3-0.5,0.4c-9.9-3-19.8-6-29.7-9C145.7,524,143.3,523,141,522z"/>
	<path id="XMLID_756_" class="st18" d="M168,499.1c-2.7-1.7-5.5-3.3-9.1-5.5c10-1.4,18.7-0.7,27.1,3.3c-2.6,0-5.3-0.1-7.9,0.1
		c-2.3,0.1-5.5-1.3-6,2.8C170.8,499.6,169.4,499.3,168,499.1z"/>
	<path id="XMLID_755_" class="st18" d="M223.1,550.8c-3.2-6.2-6.4-12.3-9.6-18.5c0.5-0.3,1-0.5,1.5-0.8c6.5,4.3,9.6,10.5,10,18.2
		C224.4,550.1,223.8,550.5,223.1,550.8z"/>
	<path id="XMLID_754_" class="st18" d="M173.1,529.9c-6.6-2.7-13.2-5.3-19.7-8c-0.9-0.4-1.6-1.3-2.4-1.9c0.3,0,0.7,0,1-0.1
		c0.7,0,1.4,0,2,0c1.3,0,2.7,0,4,0.1c1.3,0.3,2.6,0.7,4,1c4,1.3,8,2.6,12,3.9c0.4,0.6,0.7,1.2,1.1,1.9
		C174.4,527.9,173.7,528.9,173.1,529.9z"/>
	<path id="XMLID_753_" class="st14" d="M175.1,526.9c-0.4-0.6-0.7-1.2-1.1-1.9c0.1-2.9,0.2-5.3-3.4-7c-1.7-0.8-1.8-5.1-2.6-7.9
		c4.6,4.2,10.5,7.5,10.1,15.1C177.9,527.7,177.1,528.2,175.1,526.9z"/>
	<path id="XMLID_752_" class="st18" d="M167,564c3.5,1.4,7,2.9,10.5,4.3c6.3,2.6,12.7,5.3,19,8.6c-6.1-1.6-12.5-2.7-18.3-5.1
		C174,570.1,170.7,566.7,167,564L167,564z"/>
	<path id="XMLID_751_" class="st18" d="M162,507c-2.4,0-4.9,0-6.8,0c-0.5-2.6-0.9-4.7-1.5-7.9c2.5,0,6,0,9.4,0
		c-1.2,0.9-2.4,1.8-2.8,2.1C160.9,503.1,161.4,505,162,507z"/>
	<path id="XMLID_750_" class="st18" d="M170,459.9c0.8-0.4,1.9-1.4,2.3-1.1c4.6,3,9.1,6.1,13.7,9.2c0,1.1-0.1,2.1-0.1,3.2
		c-4.2-3.1-8.3-6.2-12.5-9.3C172.3,461.1,171.1,460.6,170,459.9z"/>
	<path id="XMLID_749_" class="st18" d="M141,522c2.3,1,4.7,2,7,3c-4.7,0-9.4,0-14.1,0c-1.3-1.3-2.6-2.7-3.9-4c2.7,0,5.3,0,8,0
		c0.4,0.3,0.7,0.6,1.1,0.9C139.7,522,140.3,522,141,522z"/>
	<path id="XMLID_748_" class="st12" d="M225,480c2.2,3.4,4.4,6.8,6.6,10.3c0,0,0.1,0,0.1,0c0.9,3.7,1.8,7.5,2.7,11.2
		c-0.4,0-0.7,0-1.1-0.1c-1.1-2.6-2.1-5.3-3.2-7.9C228.5,489,226.7,484.5,225,480z"/>
	<path id="XMLID_747_" class="st14" d="M218.7,563.5c-3-1.4-6.1-2.8-9.1-4.3c0.3-0.6,0.6-1.3,0.9-1.9c4.1-1,6.1,2.7,9,4.4
		C219.3,562.3,219,562.9,218.7,563.5z"/>
	<path id="XMLID_746_" class="st13" d="M234.4,501.4c-0.9-3.7-1.8-7.5-2.7-11.2c2.8,1.8,5.1,8.8,3.9,11.7
		C235.2,501.8,234.8,501.6,234.4,501.4z"/>
	<path id="XMLID_745_" class="st13" d="M230.2,493.4c1.1,2.6,2.1,5.3,3.2,7.9c-1.1-1-2.7-1.8-3.2-3.1
		C229.6,496.9,230.1,495.1,230.2,493.4z"/>
	<path id="XMLID_744_" class="st18" d="M167,564c-0.9-0.3-1.7-0.5-2.6-0.8c0.2-0.3,0.4-0.7,0.6-1C165.6,562.8,166.3,563.4,167,564
		C167,564,167,564,167,564z"/>
	<path id="XMLID_743_" class="st12" d="M223.3,478.1c0.6,0.6,1.2,1.3,1.8,1.9C224.4,479.4,223.9,478.8,223.3,478.1z"/>
	<path id="XMLID_742_" class="st14" d="M200.6,471.7c-0.1,0.3-0.2,0.5-0.4,0.8c-0.3-0.1-0.7-0.2-0.8-0.4c-0.1-0.2,0.2-0.5,0.3-0.8
		C200.1,471.5,200.3,471.6,200.6,471.7z"/>
	<path id="XMLID_741_" class="st14" d="M134,526c0.1,0.1,0.3,0.1,0.4,0.2C134.3,526.1,134.1,526.1,134,526C134,526,134,526,134,526z
		"/>
	<path id="XMLID_740_" class="st0" d="M105.9,447c0.3-6,2.4-8.9,8-10.8c0.9,6.1-1.5,11.1-6,16.4C107,450.1,106.4,448.6,105.9,447z"
		/>
	<path id="XMLID_739_" class="st14" d="M162,521.1c-1.3-0.3-2.6-0.7-4-1C159.8,518.6,161.3,518.2,162,521.1z"/>
	<path id="XMLID_738_" class="st14" d="M126.3,406c-0.4,0.2-0.8,0.5-1.2,0.5c-0.2,0-0.3-0.6-0.5-1c0.4-0.1,0.8-0.3,1.3-0.4
		C125.9,405.2,126.1,405.7,126.3,406z"/>
	<path id="XMLID_737_" class="st14" d="M154,519.9c-0.7,0-1.4,0-2,0c0.3-0.5,0.7-1,1-1.5C153.3,519,153.7,519.5,154,519.9z"/>
	<path id="XMLID_736_" class="st14" d="M139,522c-0.4-0.3-0.7-0.6-1.1-0.9C138.3,521.4,138.6,521.7,139,522z"/>
	<path id="XMLID_735_" class="st11" d="M127,399c0.3,0,0.6,0,1,0C127.7,399,127.3,399,127,399z"/>
	<path id="XMLID_734_" class="st12" d="M222.9,583.3c-6,0.2-12.1,0.4-18.1,0.7c-1.9,0.1-3.8,0.5-5.7,0.8c-3-0.4-6-0.8-9.1-1.3
		c0-0.1,0.1-0.2,0.1-0.3C201.1,583.3,212,583.3,222.9,583.3z"/>
	<path id="XMLID_733_" class="st1" d="M482.1,257.2c-5.8,0.4-4.1-3.1-3.1-6.2c1-0.4,2-0.7,3.1-1.1c0.2,1.2,0.5,2.3,0.6,3.5
		c0.1,0.9-0.1,1.9-0.2,2.8C482.4,256.6,482.3,256.9,482.1,257.2z"/>
	<path id="XMLID_732_" class="st10" d="M268.2,556c0-5,0-10,0-15c0.6-1.9,1.7-3.7,1.7-5.6c0.4-9.9,2.9-12.4,12.6-12.4c1,0,2,0.2,3,0
		c8.3-1.7,17.8-1.5,20.8-12.3c0.1-0.5,0.9-1.3,1.4-1.3c6.6,0.2,6.5-5.1,6.8-9c0.5-5.6,4-12-3.3-16.5c-2.4-1.5-0.5-5.9,2.8-6.8
		c1.2-0.3,2.5-0.5,4-0.7c0-1.8-0.1-3.3,0-4.8c0.2-2.6,1.6-3.2,3.7-1.7c2.5,1.9,4.8,4.1,7.3,5.9c2.5,1.9,5.3,3.5,7.9,5.2
		c0.4,0.3,0.7,0.7,1.1,1c2,3,4,6,5.9,9c0,0,0,0,0,0c0.6,1.7,1.3,3.3,1.9,5c3.2,9.5,6.4,18.9,9.5,28.4c0.5,1.7,0.5,3.5,0.8,5.3
		c-0.1,3.3,0.9,7.5-0.7,9.6c-1.4,1.8-5.9,1.3-9,1.8c-0.3,0.1-0.6,0.3-1.8,1.1c2.6,5.7,5.3,11.5,8,17.3c0.4-0.1,0.7-0.2,1.1-0.3
		c0.3-2.6,0.5-5.1,0.8-7.7c0.5,0,1,0.1,1.5,0.1c0,3.7,0.7,7.5-0.2,11c-1,4.1-0.6,7.3,2.2,10.3c0.1,0.7,0.1,1.4,0.2,2
		c-0.4,2-0.8,4-1.2,5.9c0,0,0,0,0,0c-0.2,0.3-0.4,0.6-0.6,0.9c-0.1,0.4-0.2,0.7-0.3,1.1c-0.3,0.3-0.6,0.6-0.9,0.9
		c-0.4,1.4-0.3,3.3-1.1,4.2c-8.5,9.2-17.7,16.4-31.3,17.1c-12.4,0.7-23.6-2-33.2-9c-5.1-3.8-8.4-10.1-12.5-15.3
		c-0.3-0.4-0.6-0.7-0.9-1.1c0,0,0-0.1,0-0.1c-0.7-1.6-1.4-3.2-2.1-4.8c-1.7-6-3.3-12-5-18C268.7,556.7,268.5,556.4,268.2,556z"/>
	<path id="XMLID_731_" class="st14" d="M336.9,481c-2.7-1.7-5.4-3.4-7.9-5.2c-2.5-1.9-4.8-4-7.3-5.9c-2-1.5-3.5-1-3.7,1.7
		c-0.1,1.5,0,3,0,4.8c-1.5,0.3-2.8,0.4-4,0.7c-3.3,0.9-5.2,5.3-2.8,6.8c7.3,4.5,3.8,10.9,3.3,16.5c-0.3,3.9-0.2,9.2-6.8,9
		c-0.5,0-1.2,0.8-1.4,1.3c-3,10.8-12.5,10.6-20.8,12.3c-1,0.2-2,0-3,0c-9.8,0-12.2,2.5-12.6,12.4c-0.1,1.9-1.1,3.7-1.7,5.6
		c0.9-7.3,1.9-14.7,2.8-22c1.3-2.8,2.7-5.5,4-8.3c2.4,0.8,4.7,1.7,7.1,2.5c0.3,0,0.5,0,0.8,0c0.7-0.1,1.4-0.1,2-0.2
		c0,1.3,0,2.5,0,3.9c7.5,0.3,13-4.2,17.5-8.5c2.1-2,0.2-8.1,0-12.4c-0.1-0.3-0.3-0.6-0.4-1c0.1-0.7,0.3-1.4,0.4-2.1
		c2.7,0.2,4.4-0.5,2.8-3.7c-1.8-3.7-3.5-7.4-5.4-11.2c1.5-0.8,2.5-1.3,3.6-1.9c-6.6,0.2-6-6.7-9.5-9.2c6.5-7.1,22.6-8.1,29.5-0.8
		C328.1,471,332.4,476.1,336.9,481z"/>
	<path id="XMLID_730_" class="st14" d="M358,573c-2.9-3-3.2-6.2-2.2-10.3c0.8-3.5,0.2-7.3,0.2-11c-0.5,0-1-0.1-1.5-0.1
		c-0.3,2.6-0.5,5.1-0.8,7.7c-0.4,0.1-0.7,0.2-1.1,0.3c-2.7-5.8-5.4-11.6-8-17.3c1.3-0.8,1.5-1.1,1.8-1.1c3.1-0.5,7.6,0,9-1.8
		c1.6-2.1,0.6-6.3,0.7-9.6c1.1,3.7,2.6,7.2,3.2,11c1.6,10.2,2.3,20.4-0.4,30.6C358.8,571.9,358.3,572.5,358,573z"/>
	<path id="XMLID_727_" class="st12" d="M274,492c0.6-1.1,1.8-2.2,1.8-3.3c0.1-3.5-1.3-7.6,5-6.8c1.8,0.2,3.8-1.9,5.8-2.7
		c1.8-0.7,3.8-1,6.7-1.8c-3.6-4.8-7.3-9.9-11-14.9c2.9-1.3,2.9-1.3,9.1,4.6c3.2,6.6,6.3,13.3,9.5,19.9c-0.3,0-0.7,0-1,0
		c-1-2.1-1.9-4.3-2.6-5.9c-1.9,0.7-4.3,2.3-5.1,1.7c-5.1-3.8-9.3,0.4-14.3,0.8c0,2.1-0.1,3.9,0,5.7c0.3,3.2-1.3,4.1-4.2,3.7
		C273.9,492.6,273.9,492.3,274,492z M293.5,479.7c0.1-0.1,0.3-0.2,0.3-0.3c0-0.1-0.2-0.2-0.3-0.3c-0.1,0.2-0.2,0.3-0.3,0.5
		C293.4,479.6,293.5,479.7,293.5,479.7z"/>
	<path id="XMLID_726_" class="st19" d="M391,571c-3,4-6,8-9,12c1.3-6.5,1.2-12.8-2.1-18.9c-0.5-0.9,0.6-3.7,1.1-3.7
		c2.2-0.1,4.7,0,6.6,1c0.9,0.4,0.4,3.1,0.9,4.7C389.1,567.8,390.2,569.4,391,571z"/>
	<path id="XMLID_725_" class="st19" d="M357,581c0.4-2,0.8-4,1.2-5.9c0.9-1,1.8-1.9,2.8-3.1c5.6,4.6,10.3,11.4,19.1,11
		c-2,2-11.6,3.3-13.4,1.2c-2.4-2.6-4.3-4.4-7.7-1.8C358.7,582.6,357.7,581.5,357,581z"/>
	<path id="XMLID_724_" class="st11" d="M301.1,487c-3.2-6.6-6.3-13.3-9.5-19.9c0.8,0,1.6,0,2.4-0.1c3.5,2.5,2.9,9.4,9.5,9.2
		c-1,0.5-2.1,1.1-3.6,1.9c1.8,3.9,3.6,7.6,5.4,11.2c1.6,3.2-0.1,3.8-2.8,3.7c0,0-0.4,0.1-0.4,0.1C301.7,491,301.4,489,301.1,487z"/>
	<path id="XMLID_723_" class="st19" d="M364,505c3,6.7,6,13.4,9,20c0.3,0.3,0.6,0.7,0.9,1c0,0.6,0,1.2,0,1.9
		c-1.1-0.2-2.9-0.1-3.1-0.6C368.4,519.9,366.2,512.5,364,505z"/>
	<path id="XMLID_722_" class="st15" d="M274,492c-0.1,0.3-0.2,0.7-0.3,1c-0.2,1.4-0.5,2.7-0.7,4.1c0.9,1.4,1.8,2.7,2.7,4.1l0,0.1
		c-3.6,4.4-5,0.6-6.9-1.8C270.6,497,272.3,494.5,274,492z"/>
	<path id="XMLID_721_" class="st18" d="M343.9,491.1c-2-3-4-6-5.9-9C342.7,483.2,343.5,487,343.9,491.1z"/>
	<path id="XMLID_720_" class="st18" d="M345.9,496.1c-0.6-1.7-1.3-3.3-1.9-5C344.6,492.8,345.2,494.4,345.9,496.1z"/>
	<path id="XMLID_719_" class="st13" d="M378,538c-0.3,0.2-0.7,0.5-1,0.7C377.3,538.5,377.7,538.2,378,538C378,538,378,538,378,538z"
		/>
	<path id="XMLID_718_" class="st13" d="M372,534c-0.4-0.1-0.8-0.3-1.2-0.4C371.2,533.8,371.6,533.9,372,534C372,534,372,534,372,534
		z"/>
	<path id="XMLID_717_" class="st19" d="M363,503c0.3,0.7,0.7,1.3,1,2C363.7,504.3,363.3,503.7,363,503z"/>
	<path id="XMLID_716_" class="st19" d="M274,575c0.7,1.6,1.4,3.2,2.1,4.8c-6.8,2.1-13.6,4.1-20.4,6.2c-1.6,0.5-3.5,0.4-4.7,1.3
		c-3.8,3.1-5.5,0.9-7.1-2.3c0,0,0.1-0.1,0.1-0.1c0.8,0.3,1.6,0.5,3.2,1c-1.2-2.8-2.1-4.8-3.1-6.8c1.5-1.8,3-3.6,4.9-5.9
		c0.3,1.2,0.4,2.7,0.9,4c0.5,1.3,1.3,3.5,2.1,3.6c2.5,0.2,5.7,0.3,7.4-1.1c2.9-2.5,4.8-6.1,7.5-9.6C269.3,571.7,271.7,573.4,274,575
		z"/>
	<path id="XMLID_715_" class="st19" d="M238,585c-0.2-2.7,1-4.2,3.9-3.9c0.7,1.3,1.4,2.6,2.1,3.9c0,0-0.1,0.1-0.1,0.1
		C242,585,240,585,238,585z"/>
	<path id="XMLID_714_" class="st19" d="M276.1,579.9c0.3,0.4,0.6,0.7,0.9,1.1C276.7,580.6,276.4,580.3,276.1,579.9z"/>
	<path id="XMLID_713_" class="st19" d="M356.3,581.9c0.2-0.3,0.4-0.6,0.6-0.9C356.8,581.3,356.6,581.6,356.3,581.9z"/>
	<path id="XMLID_712_" class="st19" d="M355.1,584c0.3-0.3,0.6-0.6,0.9-0.9C355.7,583.4,355.4,583.7,355.1,584z"/>
	<path id="XMLID_711_" class="st19" d="M350,449c1.1-0.2,2.3-0.1,3.3-0.6c5.6-2.5,7-1.5,8.8,4.5c1.3,4.2,3.8,8.1,5.8,12.1
		c-1.6-0.7-3.7-0.9-4.8-2.1C358.7,458.4,354.4,453.7,350,449z"/>
	<path id="XMLID_710_" class="st19" d="M368,465c0.7,0.7,1.3,1.3,2,2C369.3,466.3,368.7,465.7,368,465z"/>
	<path id="XMLID_709_" class="st17" d="M373.9,526.1c-0.3-0.3-0.6-0.7-0.9-1C373.3,525.4,373.6,525.7,373.9,526.1z"/>
	<path id="XMLID_706_" class="st12" d="M294.2,407.9c-1.8,2.1-3.7,4.2-5.3,6.4c-0.9,1.3-2.3,3-2,4.1c0.5,1.8,1.9,4,3.5,4.6
		c6.6,2.4,12.9,1.1,18.9-3.7c-1.5,5.5-5.8,9.1-10.7,9.1c-1.8,0-3.8,0-5.4-0.7c-4.6-1.8-8.4-1-12.4,2c-2.6,2-6,3-9.1-0.9
		c3.4-1.3,6.5-2.5,9.6-3.8c2.1-0.9,3.6-2.3,2.4-5c-0.9-2.1-1.6-3.5-4.5-3.5c-2.4,0-4.8-1.7-7.2-2.6c-0.2-0.7-0.4-1.3-0.6-2
		c-1.8-6.2-0.5-8.7,5.7-10.5c2.9-0.8,5.9-2.2,8.9-2.3C292.2,399,294.8,400.4,294.2,407.9z M286.5,402.4c-4.1,1-7.8,1.7-11.3,2.9
		c-0.9,0.3-1.8,2.5-1.6,3.5c0.3,1.5,1.4,3.7,2.6,4c4.3,1,8.7,1.6,11.5-3.3c1.1-1.8,2.7-3.4,4.1-5.1C290,403.8,288.2,403,286.5,402.4
		z"/>
	<path id="XMLID_705_" class="st2" d="M336.9,365c0.4-0.9,0.8-1.8,1.3-2.8c0.3-1,0.6-2.1,0.9-3.1c0,0,0.1,0,0.1,0
		c0.2,2.7,0.4,5.3,0.7,8.4c2.1-0.5,4.6-1.1,7.1-1.7c0.6,2.5,1.3,4.9,1.7,7.4c0.1,0.5-1.1,1.3-1.7,1.9c-10.6-0.7-16.6,3.6-18.2,13.3
		c-4.4,1.4-4.7-2.2-5.5-4.8c-0.4-1.4-0.1-3-0.1-4.5c1.8-5.2,5-9,10.2-11.1C334.7,367.5,335.7,366.1,336.9,365z"/>
	<path id="XMLID_704_" class="st19" d="M271.4,412c0.2,0.7,0.4,1.3,0.6,2c-4.9,5.7-11,3-16.7,2.1c-5.1-0.8-10-2.5-15-3.2
		c-12.5-1.9-23,3-32.8,10.1c-3.6,2.6-6.9,5.5-10.4,8.2c3.8-4,7.2-8.5,11.6-11.8c9.3-7.1,20.2-10.3,31.8-9.2
		c6.4,0.6,12.7,3.1,19.1,4.8C264,416.2,268,415.2,271.4,412z"/>
	<path id="XMLID_703_" class="st6" d="M243.5,388.7c0.2,0.3,0.5,0.5,0.7,0.8c0.9,2.3,1.9,4.5,2.9,7.1c-4.1-1.2-8.2-2.4-12.3-3.6
		c-4,1.3-7.9,2.6-11.9,4c0.3-2.4,0.6-4.7,0.9-7.1c-2.3-5.3,3.1-4.3,5-6.1c0.8,1.1,1.3,2.8,2.3,3.1
		C235.3,387.7,239.4,388.1,243.5,388.7z"/>
	<path id="XMLID_702_" class="st19" d="M396.9,405.1c-0.6-0.3-1.3-0.7-1.9-1c-0.4-0.3-0.8-0.6-1.2-0.9c-11.2-4.3-22.6-7.5-34.7-7.1
		c-6.1,0.2-12.1,1.3-18.1,2c1.2-1,2.3-2.8,3.5-2.8c10.3-0.2,20.8-1,31,0.1c6.8,0.8,13.2,4.4,19.7,6.9
		C396,402.5,396.4,404.1,396.9,405.1z"/>
	<path id="XMLID_701_" class="st18" d="M383.2,369c-0.8-2.3-1.7-4.6-2.8-7.9c2.5,0.7,3.7,1,5.3,1.4c0.1-2.4,0.2-4.7,0.4-7.4
		c6.3,4,9.3,10,7.2,14.9c-2.1-1.6-4.1-3-6.2-4.6c-0.8,1.2-1.5,2.4-2.2,3.5C384.2,369,383.7,369,383.2,369z"/>
	<path id="XMLID_700_" class="st13" d="M346.9,365.8c-2.5,0.6-5,1.2-7.1,1.7c-0.2-3-0.5-5.7-0.7-8.4c2.1-2.4,5-2.2,6.5,0.4
		c0.9,1.5,1.6,3.1,2.5,4.6C347.7,364.7,347.3,365.2,346.9,365.8z"/>
	<path id="XMLID_699_" class="st13" d="M328.7,388.4c1.6-9.7,7.6-14.1,18.2-13.3c1.7,1.1,3.4,2.2,5.1,3.4c-2-0.5-3.9-0.9-5.9-1.4
		c-6.5-1.7-13.3,3.6-15.1,9.1C330.7,387.1,329.5,387.7,328.7,388.4z"/>
	<path id="XMLID_698_" class="st12" d="M352,378.5c-1.7-1.1-3.4-2.2-5.1-3.4c0.6-0.6,1.8-1.4,1.7-1.9c-0.4-2.5-1.1-5-1.7-7.4
		c0.4-0.5,0.8-1.1,1.2-1.6c1.4-0.2,2.8-0.3,5.5-0.7c-1.3,2.9-2.4,5.1-3.6,7.6C350.1,373.4,355.5,374.9,352,378.5z"/>
	<path id="XMLID_697_" class="st12" d="M234.9,393.1c4.1,1.2,8.2,2.4,12.3,3.6c-1.1-2.5-2-4.8-2.9-7.1c1.1,0.9,2.2,1.7,3.3,2.6
		c0.9,3,1.8,6,2.7,8.9c-0.5,0.1-0.9,0.3-1.4,0.4c-2.3-1.5-4.6-3-6.8-4.4C239.6,395.7,237.2,394.4,234.9,393.1z"/>
	<path id="XMLID_696_" class="st19" d="M185.6,406.3c0.9,1.3,1.9,2.3,2.1,3.4c0.3,1.5,0.3,3.2,0,4.7c-0.1,0.9-0.9,2.4-1.5,2.4
		c-0.9,0.1-2.5-0.6-2.8-1.3c-0.7-2.3-1-4.7-1.1-7.1C182.4,407.8,184,407.2,185.6,406.3z"/>
	<path id="XMLID_695_" class="st13" d="M336.9,365c-1.2,1-2.2,2.5-3.6,3.1c-5.2,2.1-8.4,5.9-10.2,11.1c-0.1-1.6-0.9-3.7-0.2-4.6
		c1.9-2.4,5.4-3.9,6.6-6.5C331.4,364.2,333.9,364.7,336.9,365z"/>
	<path id="XMLID_694_" class="st12" d="M223.9,389.9c-0.3,2.4-0.6,4.7-0.9,7.1c-0.4,1.2-0.8,2.4-1.2,3.6c-0.4-0.1-0.8-0.2-1.2-0.3
		c0-2.3,0-4.7,0-7.1c-1.7-1.3-3.4-2.6-5.2-3.9c0.1-0.2,0.2-0.5,0.4-0.7C218.5,389,221.2,389.5,223.9,389.9z"/>
	<path id="XMLID_693_" class="st12" d="M243.5,388.7c-4.1-0.6-8.3-1-12.3-1.9c-0.9-0.2-1.5-2-2.3-3.1c1.2-0.5,2.8-1.8,3.6-1.4
		C236.3,384.2,239.9,386.6,243.5,388.7z"/>
	<path id="XMLID_692_" class="st19" d="M355.3,349c0.8,5.1-1.1,8.4-4.4,7.9c-1-0.2-2-1-2.6-1.8c-0.2-0.4,0.5-1.8,1.2-2.3
		C351.2,351.5,353.1,350.5,355.3,349z"/>
	<path id="XMLID_691_" class="st13" d="M242,397c2.3,1.5,4.6,3,6.8,4.4c0.5-0.1,0.9-0.3,1.4-0.4c-0.9-3-1.8-6-2.7-8.9
		c4.6,1.5,4.8,5.2,4.3,9.1c-0.1,0.7-1.2,1.5-2,1.7C246.7,403.7,242.5,400.4,242,397z"/>
	<path id="XMLID_690_" class="st12" d="M405.2,332.3c1.9-3.2,3.9-6.4,5.8-9.6c-2.9,5.8-5.9,11.5-8.8,17.3c-0.1,0.1-0.2,0.2-0.3,0.3
		c-0.1-0.3-0.3-0.7-0.4-1C402.7,336.9,404,334.6,405.2,332.3z"/>
	<path id="XMLID_689_" class="st13" d="M339.1,359.2c-0.3,1-0.6,2.1-0.9,3.1C338.5,361.2,338.8,360.2,339.1,359.2z"/>
	<path id="XMLID_688_" class="st14" d="M266.1,451.4c-8-1-16-2-24-3c0.1-0.7,0.2-1.4,0.2-2.2c8,0.8,16,1.6,24,2.4
		C266.3,449.5,266.2,450.5,266.1,451.4z"/>
	<path id="XMLID_687_" class="st2" d="M273,454c-3.6-0.2-7.3-0.4-10.9-0.7C265.7,453.6,269.4,453.8,273,454z"/>
	<path id="XMLID_686_" class="st17" d="M393.8,403.1c0.4,0.3,0.8,0.6,1.2,0.9C394.6,403.8,394.2,403.4,393.8,403.1z"/>
	<path id="XMLID_685_" class="st12" d="M202.1,350.4c1.8-0.7,3.6-1.3,6.3-2.3c-2.2,4.7-4.1,8.8-6.3,12.7c-0.2,0.3-2.5-0.6-3.9-1
		c0.4-2.4,0.7-4.8,1.2-8.1C199.6,351.6,200.9,351,202.1,350.4z"/>
	<path id="XMLID_684_" class="st19" d="M198,337c-0.3,0.5-0.7,1-1,1.5c-0.2-0.2-0.4-0.4-0.6-0.6C197,337.6,197.5,337.3,198,337
		C197.9,336.9,198,337,198,337z"/>
	<path id="XMLID_683_" class="st11" d="M240,545.2c-0.4,0.6-0.7,1.2-1.1,1.8C239.3,546.4,239.6,545.8,240,545.2z"/>
	<path id="XMLID_682_" class="st6" d="M273.1,497c0.2-1.4,0.5-2.7,0.7-4.1c2.9,0.5,4.5-0.5,4.2-3.7c-0.1-1.8,0-3.6,0-5.7
		c5-0.5,9.2-4.6,14.3-0.8c0.8,0.6,3.2-1,5.1-1.7c0.7,1.6,1.7,3.8,2.6,5.9c0.7,2,1.3,4,2,6c0,0,0.4-0.1,0.4-0.1
		c-0.1,0.7-0.3,1.4-0.4,2.1c-0.6,3.4-1.3,6.7-1.9,10.1l0.1,0c-2.1,2-4.2,4-6.2,6c0,0-0.3,0.2-0.3,0.2c-3.6-0.2-7.2-0.4-10.8-0.6
		c0.5-5.5-3.2-7.6-7.1-9.5c0,0,0-0.1,0-0.1C276.1,499,276.3,496.9,273.1,497z"/>
	<path id="XMLID_681_" class="st11" d="M293.7,511.4c0,0,0.3-0.2,0.3-0.2c2.1-2,4.2-4,6.2-6c0,0-0.1,0-0.1,0
		c0.8-3.1,1.6-6.1,2.3-9.2c0.1,4.3,2,10.4,0,12.4c-4.4,4.4-9.9,8.8-17.5,8.5c0-1.4,0-2.7,0-3.9C287.9,512.4,290.8,511.9,293.7,511.4
		z"/>
	<path id="XMLID_680_" class="st11" d="M282.9,513.2c-0.3,0-0.5,0-0.8,0C282.4,513,282.6,513,282.9,513.2z"/>
	<path id="XMLID_679_" class="st19" d="M252.1,519.1c-0.1,2.8,0.3,5.8-0.3,8.5c-0.7,3.5-2.2,6.9-3.5,11c-0.2-1.4-0.2-2-0.3-2.6
		C249.3,530.3,250.7,524.7,252.1,519.1z"/>
	<path id="XMLID_678_" class="st18" d="M244,585c-0.7-1.3-1.4-2.6-2.1-3.9c-1.7-6.5-3.1-13.1-0.7-19.1c0.9,5.3,1.9,11.2,3,17.1
		c0.9,2,1.8,4.1,3.1,6.8C245.7,585.5,244.9,585.2,244,585z"/>
	<path id="XMLID_677_" class="st14" d="M268.2,556c0.3,0.3,0.5,0.6,0.8,1C268.7,556.7,268.5,556.4,268.2,556z"/>
	<path id="XMLID_676_" class="st8" d="M302.5,496c-0.8,3.1-1.6,6.1-2.3,9.2c0.6-3.4,1.3-6.7,1.9-10.1
		C302.2,495.3,302.3,495.6,302.5,496z"/>
	<path id="XMLID_675_" class="st8" d="M302,493c-0.7-2-1.3-4-2-6c0.3,0,0.7,0,1,0C301.4,489,301.7,491,302,493z"/>
	<path id="XMLID_674_" class="st17" d="M293.6,479.7c-0.1,0-0.2-0.1-0.3-0.2c0.1-0.2,0.2-0.3,0.3-0.5c0.1,0.1,0.3,0.2,0.3,0.3
		C293.8,479.6,293.6,479.6,293.6,479.7z"/>
	<path id="XMLID_673_" class="st12" d="M273.1,497c3.2-0.2,3.1,1.9,2.7,4.1C274.9,499.8,274,498.4,273.1,497z"/>
	<path id="XMLID_672_" class="st2" d="M286.5,402.4c1.7,0.6,3.5,1.4,5.3,2.1c-1.4,1.7-3,3.2-4.1,5.1c-2.8,4.9-7.3,4.2-11.5,3.3
		c-1.2-0.3-2.3-2.5-2.6-4c-0.2-1.1,0.7-3.2,1.6-3.5C278.7,404.1,282.4,403.4,286.5,402.4z"/>
	<path id="XMLID_671_" class="st8" d="M300.2,505.1c-2.1,2-4.2,4-6.2,6C296,509.2,298.1,507.1,300.2,505.1z"/>
</g>
</svg>
